<svg width="80" height="80" viewBox="0 0 80 80" fill="none" xmlns="http://www.w3.org/2000/svg">
<path d="M63.3337 13.3334H56.667V10C56.667 9.11597 56.3158 8.26812 55.6907 7.643C55.0656 7.01788 54.2177 6.66669 53.3337 6.66669C52.4496 6.66669 51.6018 7.01788 50.9766 7.643C50.3515 8.26812 50.0003 9.11597 50.0003 10V13.3334H30.0003V10C30.0003 9.11597 29.6491 8.26812 29.024 7.643C28.3989 7.01788 27.551 6.66669 26.667 6.66669C25.7829 6.66669 24.9351 7.01788 24.31 7.643C23.6848 8.26812 23.3337 9.11597 23.3337 10V13.3334H16.667C14.0148 13.3334 11.4713 14.3869 9.59592 16.2623C7.72056 18.1377 6.66699 20.6812 6.66699 23.3334V63.3334C6.66699 65.9855 7.72056 68.5291 9.59592 70.4044C11.4713 72.2798 14.0148 73.3334 16.667 73.3334H63.3337C65.9858 73.3334 68.5294 72.2798 70.4047 70.4044C72.2801 68.5291 73.3337 65.9855 73.3337 63.3334V23.3334C73.3337 20.6812 72.2801 18.1377 70.4047 16.2623C68.5294 14.3869 65.9858 13.3334 63.3337 13.3334ZM66.667 63.3334C66.667 64.2174 66.3158 65.0653 65.6907 65.6904C65.0656 66.3155 64.2177 66.6667 63.3337 66.6667H16.667C15.7829 66.6667 14.9351 66.3155 14.31 65.6904C13.6848 65.0653 13.3337 64.2174 13.3337 63.3334V40H66.667V63.3334ZM66.667 33.3334H13.3337V23.3334C13.3337 22.4493 13.6848 21.6015 14.31 20.9763C14.9351 20.3512 15.7829 20 16.667 20H23.3337V23.3334C23.3337 24.2174 23.6848 25.0653 24.31 25.6904C24.9351 26.3155 25.7829 26.6667 26.667 26.6667C27.551 26.6667 28.3989 26.3155 29.024 25.6904C29.6491 25.0653 30.0003 24.2174 30.0003 23.3334V20H50.0003V23.3334C50.0003 24.2174 50.3515 25.0653 50.9766 25.6904C51.6018 26.3155 52.4496 26.6667 53.3337 26.6667C54.2177 26.6667 55.0656 26.3155 55.6907 25.6904C56.3158 25.0653 56.667 24.2174 56.667 23.3334V20H63.3337C64.2177 20 65.0656 20.3512 65.6907 20.9763C66.3158 21.6015 66.667 22.4493 66.667 23.3334V33.3334Z" fill="url(#paint0_linear_859_22)"/>
<defs>
<linearGradient id="paint0_linear_859_22" x1="-4.99967" y1="-20.8333" x2="96.2101" y2="-14.3202" gradientUnits="userSpaceOnUse">
<stop stop-color="#FF9378"/>
<stop offset="1" stop-color="#FD3402"/>
</linearGradient>
</defs>
</svg>
