<svg width="80" height="80" viewBox="0 0 80 80" fill="none" xmlns="http://www.w3.org/2000/svg">
<path d="M22.5003 73.3333C21.8669 73.3332 21.2572 73.0925 20.7944 72.6601C20.3315 72.2277 20.0501 71.6357 20.0069 71.0037C19.9637 70.3718 20.162 69.747 20.5618 69.2557C20.9615 68.7643 21.5328 68.443 22.1603 68.3567L22.5003 68.3333H28.3303V60.0067H14.167C12.2666 60.0069 10.4369 59.2857 9.04781 57.9888C7.65871 56.6919 6.81373 54.916 6.68366 53.02L6.66699 52.5067V43.3333H11.667V52.5067C11.667 53.7733 12.607 54.8167 13.827 54.9833L14.167 55.0067H65.8303C66.4345 55.0067 67.0181 54.7879 67.4734 54.3908C67.9287 53.9937 68.2248 53.4452 68.307 52.8467L68.3303 52.5067V43.3333H73.3303V52.5067C73.3306 54.4071 72.6093 56.2367 71.3124 57.6259C70.0155 59.015 68.2396 59.8599 66.3437 59.99L65.8303 60.0067H51.6637V68.3333H57.5003C58.1337 68.3335 58.7435 68.5742 59.2063 69.0066C59.6691 69.439 59.9506 70.031 59.9937 70.6629C60.0369 71.2949 59.8386 71.9197 59.4389 72.411C59.0392 72.9024 58.4678 73.2237 57.8403 73.31L57.5003 73.3333H22.5003ZM46.6603 60.0067H33.327L33.3303 68.3333H46.6637L46.6603 60.0067ZM11.667 31.6667H6.66699V17.5C6.66676 15.5996 7.38798 13.7699 8.68489 12.3808C9.9818 10.9917 11.7577 10.1467 13.6537 10.0167L14.167 10H65.8303C67.7302 9.99971 69.5594 10.7205 70.9484 12.0167C72.3375 13.3129 73.1828 15.088 73.3137 16.9833L73.3303 17.5V31.6667H68.3303V17.5C68.3311 16.8953 68.1127 16.3108 67.7155 15.8548C67.3184 15.3988 66.7694 15.1022 66.1703 15.02L65.8303 15H14.167C13.5629 15 12.9792 15.2188 12.5239 15.6159C12.0686 16.013 11.7725 16.5615 11.6903 17.16L11.667 17.5V31.6667ZM32.3203 21.57C32.1375 21.1149 31.825 20.7237 31.4215 20.4449C31.018 20.1662 30.5415 20.0123 30.0512 20.0023C29.5609 19.9924 29.0785 20.1269 28.6641 20.389C28.2496 20.6512 27.9214 21.0294 27.7203 21.4767L21.647 35H9.16699C8.50395 35 7.86807 35.2634 7.39923 35.7322C6.93038 36.2011 6.66699 36.837 6.66699 37.5C6.66699 38.163 6.93038 38.7989 7.39923 39.2678C7.86807 39.7366 8.50395 40 9.16699 40H23.267C23.7489 39.9998 24.2205 39.8603 24.625 39.5984C25.0296 39.3364 25.3497 38.9631 25.547 38.5233L29.867 28.9L37.6803 48.4267C37.8535 48.8605 38.1447 49.2371 38.5209 49.5139C38.8971 49.7906 39.3434 49.9564 39.8091 49.9925C40.2748 50.0286 40.7412 49.9335 41.1556 49.718C41.57 49.5026 41.9158 49.1753 42.1537 48.7733L51.0103 33.78L54.6203 38.9333C55.087 39.6 55.8537 40 56.667 40H70.8337C71.4967 40 72.1326 39.7366 72.6014 39.2678C73.0703 38.7989 73.3337 38.163 73.3337 37.5C73.3337 36.837 73.0703 36.2011 72.6014 35.7322C72.1326 35.2634 71.4967 35 70.8337 35H57.967L52.8803 27.7333C52.6406 27.3907 52.3188 27.1136 51.9443 26.9276C51.5698 26.7415 51.1546 26.6524 50.7367 26.6683C50.3188 26.6842 49.9116 26.8047 49.5524 27.0187C49.1931 27.2327 48.8933 27.5334 48.6803 27.8933L40.4337 41.8533L32.3203 21.5667V21.57Z" fill="url(#paint0_linear_859_35)"/>
<defs>
<linearGradient id="paint0_linear_859_35" x1="-4.99968" y1="-16.125" x2="96.1651" y2="-9.27214" gradientUnits="userSpaceOnUse">
<stop stop-color="#FF9378"/>
<stop offset="1" stop-color="#FD3402"/>
</linearGradient>
</defs>
</svg>
