<svg width="80" height="80" viewBox="0 0 80 80" fill="none" xmlns="http://www.w3.org/2000/svg">
<path d="M54.5337 46.6667C54.8003 44.4667 55.0003 42.2667 55.0003 40C55.0003 37.7334 54.8003 35.5334 54.5337 33.3334H65.8003C66.3337 35.4667 66.667 37.7 66.667 40C66.667 42.3 66.3337 44.5334 65.8003 46.6667H54.5337ZM48.6337 65.2C50.6337 61.5 52.167 57.5 53.2337 53.3334H63.067C59.8376 58.8943 54.714 63.1067 48.6337 65.2ZM47.8003 46.6667H32.2003C31.867 44.4667 31.667 42.2667 31.667 40C31.667 37.7334 31.867 35.5 32.2003 33.3334H47.8003C48.1003 35.5 48.3337 37.7334 48.3337 40C48.3337 42.2667 48.1003 44.4667 47.8003 46.6667ZM40.0003 66.5333C37.2337 62.5333 35.0003 58.1 33.6337 53.3334H46.367C45.0003 58.1 42.767 62.5333 40.0003 66.5333ZM26.667 26.6667H16.9337C20.1298 21.0907 25.2496 16.8716 31.3337 14.8C29.3337 18.5 27.8337 22.5 26.667 26.6667ZM16.9337 53.3334H26.667C27.8337 57.5 29.3337 61.5 31.3337 65.2C25.2624 63.1056 20.1498 58.8924 16.9337 53.3334ZM14.2003 46.6667C13.667 44.5334 13.3337 42.3 13.3337 40C13.3337 37.7 13.667 35.4667 14.2003 33.3334H25.467C25.2003 35.5334 25.0003 37.7334 25.0003 40C25.0003 42.2667 25.2003 44.4667 25.467 46.6667H14.2003ZM40.0003 13.4334C42.767 17.4334 45.0003 21.9 46.367 26.6667H33.6337C35.0003 21.9 37.2337 17.4334 40.0003 13.4334ZM63.067 26.6667H53.2337C52.1904 22.5382 50.6456 18.553 48.6337 14.8C54.767 16.9 59.867 21.1334 63.067 26.6667ZM40.0003 6.66669C21.567 6.66669 6.66699 21.6667 6.66699 40C6.66699 48.8406 10.1789 57.319 16.4301 63.5702C19.5254 66.6655 23.2 69.1208 27.2442 70.796C31.2884 72.4712 35.6229 73.3334 40.0003 73.3334C48.8409 73.3334 57.3193 69.8215 63.5705 63.5702C69.8218 57.319 73.3337 48.8406 73.3337 40C73.3337 35.6226 72.4715 31.2881 70.7963 27.2439C69.1212 23.1997 66.6658 19.5251 63.5705 16.4298C60.4753 13.3345 56.8006 10.8792 52.7564 9.20404C48.7123 7.52888 44.3777 6.66669 40.0003 6.66669Z" fill="url(#paint0_linear_859_38)"/>
<defs>
<linearGradient id="paint0_linear_859_38" x1="-4.99967" y1="-20.8333" x2="96.2101" y2="-14.3202" gradientUnits="userSpaceOnUse">
<stop stop-color="#FF9378"/>
<stop offset="1" stop-color="#FD3402"/>
</linearGradient>
</defs>
</svg>
