<svg width="36" height="24" viewBox="0 0 36 24" fill="none" xmlns="http://www.w3.org/2000/svg">
<path fill-rule="evenodd" clip-rule="evenodd" d="M35.5 12C35.5 12.3315 35.3683 12.6495 35.1339 12.8839C34.8995 13.1183 34.5815 13.25 34.25 13.25L4.7675 13.25L12.635 21.115C12.8697 21.3497 13.0016 21.6681 13.0016 22C13.0016 22.3319 12.8697 22.6503 12.635 22.885C12.4003 23.1197 12.0819 23.2516 11.75 23.2516C11.4181 23.2516 11.0997 23.1197 10.865 22.885L0.865001 12.885C0.748596 12.7689 0.656238 12.6309 0.593223 12.4791C0.530204 12.3272 0.497768 12.1644 0.497768 12C0.497768 11.8356 0.530204 11.6728 0.593223 11.5209C0.656238 11.3691 0.748596 11.2311 0.865001 11.115L10.865 1.115C11.0997 0.88028 11.4181 0.748418 11.75 0.748418C12.0819 0.748418 12.4003 0.88028 12.635 1.115C12.8697 1.34971 13.0016 1.66806 13.0016 2C13.0016 2.33194 12.8697 2.65028 12.635 2.885L4.7675 10.75L34.25 10.75C34.5815 10.75 34.8995 10.8817 35.1339 11.1161C35.3683 11.3505 35.5 11.6685 35.5 12Z" fill="url(#paint0_linear_1085_22)"/>
<defs>
<linearGradient id="paint0_linear_1085_22" x1="49.9384" y1="-3.18963" x2="48.5216" y2="31.0563" gradientUnits="userSpaceOnUse">
<stop stop-color="#FF9378"/>
<stop offset="1" stop-color="#FD3402"/>
</linearGradient>
</defs>
</svg>
