<svg width="25" height="24" viewBox="0 0 25 24" fill="none" xmlns="http://www.w3.org/2000/svg">
<path d="M10.5694 14.3333C12.0191 15.8039 13.7731 16.9393 15.7083 17.6597L18.3264 15.5764C18.404 15.5229 18.496 15.4943 18.5903 15.4943C18.6845 15.4943 18.7765 15.5229 18.8541 15.5764L23.7153 18.7083C23.8998 18.8193 24.056 18.9716 24.1716 19.1533C24.2871 19.335 24.3589 19.5411 24.3811 19.7553C24.4033 19.9695 24.3754 20.1859 24.2996 20.3875C24.2239 20.589 24.1023 20.7702 23.9444 20.9167L21.6666 23.1667C21.3404 23.489 20.9395 23.7255 20.4997 23.8552C20.0598 23.9848 19.5947 24.0036 19.1458 23.9097C14.6682 22.9849 10.541 20.8191 7.23609 17.6597C4.00448 14.4689 1.76822 10.4089 0.798587 5.97222C0.7028 5.53031 0.722792 5.07114 0.856626 4.63922C0.99046 4.2073 1.2336 3.81728 1.56248 3.50695L3.92359 1.22917C4.0697 1.07902 4.24788 0.963873 4.4448 0.892348C4.64172 0.820822 4.85227 0.794772 5.06068 0.816147C5.26909 0.837523 5.46997 0.90577 5.64826 1.01578C5.82656 1.12579 5.97766 1.27471 6.09025 1.45139L9.32637 6.25C9.38218 6.32535 9.41231 6.41665 9.41231 6.51042C9.41231 6.60419 9.38218 6.69548 9.32637 6.77084L7.19442 9.33334C7.93441 11.2298 9.08729 12.9378 10.5694 14.3333Z" fill="#FB532A"/>
</svg>
