<svg width="80" height="80" fill="none" xmlns="http://www.w3.org/2000/svg"><path d="M63.334 13.333h-6.667V10A3.333 3.333 0 0050 10v3.333H30V10a3.333 3.333 0 00-6.666 0v3.333h-6.667a10 10 0 00-10 10v40a10 10 0 0010 10h46.667a10 10 0 0010-10v-40a10 10 0 00-10-10zm3.333 50a3.333 3.333 0 01-3.333 3.334H16.667a3.333 3.333 0 01-3.333-3.334V40h53.333v23.333zm0-30H13.334v-10A3.333 3.333 0 0116.667 20h6.667v3.333a3.333 3.333 0 106.666 0V20h20v3.333a3.333 3.333 0 006.667 0V20h6.667a3.333 3.333 0 013.333 3.333v10z" fill="url(#paint0_linear_859_22)"/><defs><linearGradient id="paint0_linear_859_22" x1="-5" y1="-20.833" x2="96.21" y2="-14.32" gradientUnits="userSpaceOnUse"><stop stop-color="#FF9378"/><stop offset="1" stop-color="#FD3402"/></linearGradient></defs></svg>