<svg width="80" height="80" fill="none" xmlns="http://www.w3.org/2000/svg"><path d="M22.5 73.333a2.5 2.5 0 01-.34-4.976l.34-.024h5.83v-8.326H14.167a7.5 7.5 0 01-7.483-6.987l-.017-.513v-9.174h5v9.174a2.5 2.5 0 002.16 2.476l.34.024H65.83a2.5 2.5 0 002.477-2.16l.023-.34v-9.174h5v9.174a7.5 7.5 0 01-6.986 7.483l-.514.017H51.664v8.326H57.5a2.5 2.5 0 01.34 4.977l-.34.023h-35zm24.16-13.326H33.327l.003 8.326h13.334l-.004-8.326zm-34.993-28.34h-5V17.5a7.5 7.5 0 016.987-7.483l.513-.017H65.83a7.5 7.5 0 017.484 6.983l.016.517v14.167h-5V17.5a2.5 2.5 0 00-2.16-2.48l-.34-.02H14.167a2.5 2.5 0 00-2.477 2.16l-.023.34v14.167zM32.32 21.57a2.5 2.5 0 00-4.6-.093L21.647 35H9.167a2.5 2.5 0 000 5h14.1a2.5 2.5 0 002.28-1.477l4.32-9.623 7.813 19.527a2.501 2.501 0 004.474.346L51.01 33.78l3.61 5.153A2.504 2.504 0 0056.667 40h14.167a2.5 2.5 0 000-5H57.967l-5.087-7.267a2.5 2.5 0 00-4.2.16l-8.246 13.96-8.114-20.286v.003z" fill="url(#paint0_linear_859_35)"/><defs><linearGradient id="paint0_linear_859_35" x1="-5" y1="-16.125" x2="96.165" y2="-9.272" gradientUnits="userSpaceOnUse"><stop stop-color="#FF9378"/><stop offset="1" stop-color="#FD3402"/></linearGradient></defs></svg>