<svg width="80" height="80" fill="none" xmlns="http://www.w3.org/2000/svg"><path d="M54.534 46.667c.266-2.2.466-4.4.466-6.667 0-2.267-.2-4.467-.466-6.667H65.8c.534 2.134.867 4.367.867 6.667s-.333 4.533-.867 6.667H54.534zm-5.9 18.533c2-3.7 3.533-7.7 4.6-11.867h9.833A26.767 26.767 0 0148.634 65.2zM47.8 46.667H32.2c-.333-2.2-.533-4.4-.533-6.667 0-2.267.2-4.5.533-6.667h15.6c.3 2.167.534 4.4.534 6.667 0 2.267-.234 4.467-.534 6.667zM40 66.533c-2.766-4-5-8.433-6.366-13.2h12.733c-1.367 4.767-3.6 9.2-6.367 13.2zM26.667 26.667h-9.733a26.41 26.41 0 0114.4-11.867c-2 3.7-3.5 7.7-4.667 11.867zm-9.733 26.666h9.733C27.834 57.5 29.334 61.5 31.334 65.2a26.693 26.693 0 01-14.4-11.867zM14.2 46.667c-.533-2.134-.866-4.367-.866-6.667s.333-4.533.866-6.667h11.267C25.2 35.533 25 37.733 25 40c0 2.267.2 4.467.467 6.667H14.2zM40 13.433c2.767 4 5 8.467 6.367 13.234H33.634C35 21.9 37.234 17.433 40 13.433zm23.067 13.234h-9.833a52.169 52.169 0 00-4.6-11.867 26.623 26.623 0 0114.433 11.867zM40 6.667c-18.433 0-33.333 15-33.333 33.333A33.333 33.333 0 1040 6.667z" fill="url(#paint0_linear_859_38)"/><defs><linearGradient id="paint0_linear_859_38" x1="-5" y1="-20.833" x2="96.21" y2="-14.32" gradientUnits="userSpaceOnUse"><stop stop-color="#FF9378"/><stop offset="1" stop-color="#FD3402"/></linearGradient></defs></svg>