<svg width="50" height="50" viewBox="0 0 50 50" fill="none" xmlns="http://www.w3.org/2000/svg">
<g clip-path="url(#clip0_251_54)">
<path d="M20.0138 21.3454C21.0322 21.3446 21.9518 20.7357 22.3501 19.7988C22.7489 18.8614 22.5495 17.7768 21.8438 17.0425L20.6715 15.8251C20.5155 15.6638 20.3025 15.5707 20.0783 15.5662C19.8545 15.5649 19.6386 15.6493 19.4752 15.8024L17.0284 18.1532L14.5878 20.504C14.3607 20.7121 14.2639 21.0265 14.3354 21.3256C14.4066 21.6251 14.6349 21.8621 14.9311 21.9452C15.2273 22.028 15.5454 21.944 15.7617 21.7252L17.5926 19.9622L17.8172 20.195L16.7268 23.2719C16.6217 23.5581 16.6784 23.8791 16.8753 24.112C17.0726 24.3445 17.3796 24.4533 17.6795 24.3966C17.979 24.3399 18.2251 24.1265 18.3235 23.8377L19.2505 21.2201C19.4971 21.3003 19.7544 21.343 20.0138 21.3454ZM20.0361 17.6076L20.6239 18.2177C20.9495 18.5557 20.9395 19.0935 20.602 19.419C20.264 19.7446 19.7263 19.7346 19.4007 19.3971L18.8133 18.7861L20.0361 17.6076Z" fill="#FB532A"/>
<path d="M15.983 17.0708C16.6106 17.0542 17.2095 16.8035 17.6621 16.3684C18.6731 15.3946 18.7037 13.7859 17.7299 12.7745L16.5539 11.5538C16.2292 11.2175 15.6939 11.2075 15.3568 11.5318L10.4756 16.2335C10.1384 16.5582 10.1289 17.0948 10.4536 17.4315L11.6284 18.6514C12.0942 19.1378 12.7346 19.4179 13.4076 19.4295H13.4568C14.7888 19.4324 15.8937 18.399 15.9797 17.0699L15.983 17.0708ZM15.9218 13.3433L16.5092 13.953C16.8335 14.2901 16.8232 14.8266 16.4861 15.151C16.3309 15.3168 16.1096 15.4041 15.8829 15.3884C15.6587 15.3843 15.4453 15.2912 15.2902 15.129L14.7028 14.5181L15.9218 13.3433ZM14.0454 17.5018C13.8891 17.6656 13.6686 17.7525 13.4423 17.7392C13.2177 17.7351 13.0043 17.6412 12.8491 17.479L12.2622 16.8689L13.482 15.6941L14.069 16.3038C14.3913 16.641 14.3805 17.1746 14.0454 17.4985V17.5018Z" fill="#FB532A"/>
<path d="M26.5463 21.9267C26.3014 21.6723 25.9242 21.5966 25.6003 21.7369L18.9548 24.6081C18.5291 24.7959 18.3347 25.2919 18.5192 25.7192C18.7037 26.1461 19.198 26.3446 19.6266 26.1635L20.7492 25.6782L22.5793 27.579L22.0531 28.6806C21.8517 29.1025 22.0308 29.6084 22.4527 29.8099C22.5665 29.8653 22.691 29.8943 22.8171 29.8943C23.1427 29.8939 23.4393 29.7065 23.5795 29.4124L26.6981 22.8798C26.8512 22.5617 26.7908 22.182 26.5463 21.9267ZM22.4105 24.9605L24.1979 24.1878L23.3595 25.9459L22.4105 24.9605Z" fill="#FB532A"/>
<path d="M33.0114 28.6386C32.6867 28.3015 32.1506 28.2916 31.8135 28.6159L29.0585 31.2683L30.2825 26.3809C30.3739 26.0148 30.2118 25.6322 29.885 25.4431C29.5582 25.2541 29.1457 25.3037 28.8736 25.5652L23.9924 30.2672C23.6697 30.594 23.6664 31.119 23.9853 31.4495C24.3038 31.7804 24.8284 31.7969 25.1671 31.4871L27.9213 28.8343L26.6973 33.7217C26.6055 34.0882 26.7672 34.4713 27.094 34.6607C27.4212 34.8502 27.8336 34.8001 28.1062 34.5387L32.9866 29.8366C33.3241 29.5127 33.3353 28.9762 33.0114 28.6386Z" fill="#FB532A"/>
<path d="M34.7744 30.4694C34.6189 30.3077 34.4054 30.2142 34.1812 30.2092C33.9583 30.2146 33.7448 30.2986 33.5781 30.4467L28.6965 35.1483C28.3602 35.4727 28.3499 36.0083 28.6737 36.3455L29.2616 36.9565C30.3036 38.0808 31.8718 38.5544 33.3622 38.195C34.8522 37.8355 36.0319 36.6992 36.4469 35.2232C36.8613 33.7473 36.4464 32.1625 35.3614 31.0796L34.7744 30.4694ZM34.0745 35.8483C33.0635 36.822 31.4548 36.7922 30.4806 35.7812L34.1415 32.2544C35.1153 33.2654 35.0855 34.8745 34.0745 35.8483Z" fill="#FB532A"/>
<path d="M45.6748 29.7598L46.6246 28.81L45.4266 27.6121L44.4769 28.5618V27.2183H42.7825V28.5618L41.8327 27.6121L40.6352 28.81L41.5845 29.7598H40.241V31.4542H41.5845L40.6352 32.4048L41.8327 33.6027L42.7825 32.6521V33.9957H44.4769V32.6521L45.4266 33.6027L46.6246 32.4048L45.6748 31.4542H47.0184V29.7598H45.6748Z" fill="#FB532A"/>
<path d="M43.6297 24.253C42.1566 24.2513 40.7291 24.7643 39.594 25.7033L17.9103 3.19142C17.7374 3.01106 17.4937 2.91675 17.2443 2.93288L3.24062 3.83673L1.74937 2.28881C1.42465 1.95168 0.888131 1.94175 0.55141 2.26647C0.214277 2.5912 0.203935 3.12771 0.528659 3.46485L2.00295 4.99498L0.00951415 18.3236C-0.0297837 18.5838 0.0541896 18.8473 0.236614 19.0367L27.8597 47.7146C28.184 48.0517 28.7205 48.0621 29.0576 47.7374L40.8958 36.3344C43.2528 37.4661 46.062 37.0388 47.9756 35.2572C49.8888 33.476 50.5163 30.7044 49.5558 28.2729C48.5957 25.8414 46.244 24.2464 43.6297 24.253ZM3.48634 6.53504L4.74925 7.84635C4.35792 8.62527 4.3935 9.55022 4.84439 10.2965C5.29528 11.0423 6.09737 11.5044 6.96895 11.5197H7.01735C8.42091 11.5329 9.56923 10.4053 9.58205 9.00171C9.59488 7.59774 8.46765 6.44983 7.0641 6.43659C6.68642 6.42873 6.31206 6.50857 5.97037 6.6699L4.77986 5.43553L16.9614 4.64916L17.2774 4.97719L2.63295 19.0826L1.74689 18.1618L3.48634 6.53504ZM6.42954 8.36839C6.58632 8.21575 6.79687 8.13053 7.0157 8.13095H7.03266C7.37517 8.13798 7.67962 8.35019 7.80455 8.66912C7.92947 8.98805 7.85005 9.35083 7.60351 9.58828C7.44508 9.74878 7.22584 9.83482 7.00039 9.82448C6.65788 9.81827 6.35301 9.60606 6.22767 9.28713C6.10233 8.9682 6.18176 8.605 6.42871 8.36756L6.42954 8.36839ZM28.4926 45.9288L24.7506 42.0437H32.5258L28.4926 45.9288ZM34.2582 40.3754V40.3494H23.1179L3.8123 20.3025L18.4526 6.19708L38.4461 26.9529C36.566 29.6029 37.0008 33.2464 39.4517 35.3796L34.2582 40.3754ZM43.6297 35.2663C41.0563 35.2663 38.9702 33.1802 38.9702 30.6068C38.9702 28.0334 41.0563 25.9473 43.6297 25.9473C46.2031 25.9473 48.2892 28.0334 48.2892 30.6068C48.2867 33.179 46.2018 35.2634 43.6297 35.2663Z" fill="#FB532A"/>
</g>
<defs>
<clipPath id="clip0_251_54">
<rect width="50" height="50" fill="white" transform="translate(0 0.000976562)"/>
</clipPath>
</defs>
</svg>
