<svg width="30" height="50" viewBox="0 0 30 50" fill="none" xmlns="http://www.w3.org/2000/svg">
<g clip-path="url(#clip0_244_39)">
<path d="M19.5833 4.16772H14.5833C13.8925 4.16772 13.3333 4.7269 13.3333 5.41772C13.3333 6.10854 13.8925 6.66772 14.5833 6.66772H19.5833C20.2741 6.66772 20.8333 6.10854 20.8333 5.41772C20.8333 4.7269 20.2741 4.16772 19.5833 4.16772Z" fill="#FB532A"/>
<path d="M25 0.000976562H5C2.24336 0.000976562 0 2.24434 0 5.00098V45.001C0 47.7576 2.24336 50.001 5 50.001H25C27.7566 50.001 30 47.7576 30 45.001V5.00098C30 2.24434 27.7566 0.000976562 25 0.000976562ZM27.5 45.001C27.5 46.3818 26.3809 47.501 25 47.501H5C3.61914 47.501 2.5 46.3818 2.5 45.001V5.00098C2.5 3.62012 3.61914 2.50098 5 2.50098H25C26.3809 2.50098 27.5 3.62012 27.5 5.00098V45.001Z" fill="#FB532A"/>
<path d="M15 45.8342C16.3807 45.8342 17.5 44.7149 17.5 43.3342C17.5 41.9535 16.3807 40.8342 15 40.8342C13.6193 40.8342 12.5 41.9535 12.5 43.3342C12.5 44.7149 13.6193 45.8342 15 45.8342Z" fill="#FB532A"/>
<path d="M10.4167 6.66772C11.107 6.66772 11.6667 6.10808 11.6667 5.41772C11.6667 4.72737 11.107 4.16772 10.4167 4.16772C9.72633 4.16772 9.16669 4.72737 9.16669 5.41772C9.16669 6.10808 9.72633 6.66772 10.4167 6.66772Z" fill="#FB532A"/>
</g>
<defs>
<clipPath id="clip0_244_39">
<rect width="30" height="50" fill="white" transform="translate(0 0.000976562)"/>
</clipPath>
</defs>
</svg>
