<svg width="50" height="50" viewBox="0 0 50 50" fill="none" xmlns="http://www.w3.org/2000/svg">
<path d="M45.3125 0.782227H4.6875C2.53359 0.782227 0.78125 2.53457 0.78125 4.68848V33.5947C0.78125 35.7486 2.53359 37.501 4.6875 37.501H19.307C19.9469 38.415 20.3125 39.5025 20.3125 40.626C20.3125 41.4416 20.1203 42.24 19.7742 42.9697H16.4062C14.2523 42.9697 12.5 44.7221 12.5 46.876V48.4385C12.5 48.8697 12.8492 49.2197 13.2812 49.2197H36.7188C37.1508 49.2197 37.5 48.8697 37.5 48.4385V46.876C37.5 44.7221 35.7477 42.9697 33.5938 42.9697H30.2258C29.8789 42.24 29.6875 41.4408 29.6875 40.626C29.6875 39.4877 30.0438 38.4205 30.6898 37.501H45.3125C47.4664 37.501 49.2188 35.7486 49.2188 33.5947V4.68848C49.2188 2.53457 47.4664 0.782227 45.3125 0.782227ZM4.6875 2.34473H45.3125C46.6047 2.34473 47.6562 3.39629 47.6562 4.68848V26.5635H46.0938V5.46973C46.0938 4.60801 45.393 3.90723 44.5312 3.90723H5.46875C4.60703 3.90723 3.90625 4.60801 3.90625 5.46973V26.5635H2.34375V4.68848C2.34375 3.39629 3.39531 2.34473 4.6875 2.34473ZM31.3812 12.5033C32.0344 12.0041 32.8383 11.7197 33.6758 11.7197C35.2883 11.7197 36.7352 12.7643 37.2758 14.3197C37.3859 14.6338 37.6813 14.8447 38.0141 14.8447H44.5312V16.4072H38.0047C37.6727 16.4072 37.3773 16.6166 37.268 16.9291C36.7969 18.2682 35.6305 19.2705 34.2945 19.4822C33.2313 19.6525 32.1883 19.3729 31.3766 18.7479C33.0414 18.6822 34.375 17.3064 34.375 15.626C34.375 13.9471 33.0438 12.5729 31.3812 12.5033ZM44.5312 13.2822H38.5391C37.6555 11.3924 35.7656 10.1572 33.6758 10.1572C31.7563 10.1572 29.968 11.2072 29.0086 12.8963C28.8711 13.1385 28.8727 13.4346 29.0125 13.6752C29.1523 13.9158 29.4102 14.0635 29.6883 14.0635H31.25C32.1117 14.0635 32.8125 14.7643 32.8125 15.626C32.8125 16.4877 32.1117 17.1885 31.2492 17.1885L29.6867 17.1893C29.4094 17.1893 29.1516 17.3369 29.0125 17.5783C28.8727 17.8189 28.8711 18.1158 29.0086 18.3572C29.9875 20.0775 31.7586 21.0947 33.6766 21.0947C33.9617 21.0947 34.25 21.0721 34.5398 21.0268C36.2531 20.7541 37.7664 19.5783 38.5273 17.9705H44.5312V26.5643H5.46875V5.46973H44.5312V13.2822ZM35.9375 46.876V47.6572H14.0625V46.876C14.0625 45.5838 15.1141 44.5322 16.4062 44.5322H33.5938C34.8859 44.5322 35.9375 45.5838 35.9375 46.876ZM28.5414 42.9697H21.4586C21.7242 42.2197 21.875 41.4299 21.875 40.626C21.875 39.5354 21.6141 38.4666 21.1352 37.501H28.8648C28.3867 38.4674 28.125 39.5377 28.125 40.626C28.125 41.4291 28.2766 42.2197 28.5414 42.9697ZM45.3125 35.9385H4.6875C3.39531 35.9385 2.34375 34.8869 2.34375 33.5947V28.126H47.6562V33.5947C47.6562 34.8869 46.6047 35.9385 45.3125 35.9385Z" fill="#FB532A"/>
<path d="M25 29.6885C23.7078 29.6885 22.6562 30.74 22.6562 32.0322C22.6562 33.3244 23.7078 34.376 25 34.376C26.2922 34.376 27.3438 33.3244 27.3438 32.0322C27.3438 30.74 26.2922 29.6885 25 29.6885ZM25 32.8135C24.5688 32.8135 24.2188 32.4627 24.2188 32.0322C24.2188 31.6018 24.5688 31.251 25 31.251C25.4313 31.251 25.7812 31.6018 25.7812 32.0322C25.7812 32.4627 25.4313 32.8135 25 32.8135Z" fill="#FB532A"/>
<path d="M10.9375 17.9697H12.0172L12.3305 18.5971L11.1664 19.7611C10.8609 20.0666 10.8609 20.5604 11.1664 20.8658L13.5102 23.2096C13.8156 23.515 14.3094 23.515 14.6148 23.2096L15.7789 22.0455L16.4062 22.3588V23.4385C16.4062 23.8697 16.7555 24.2197 17.1875 24.2197H20.3125C20.7445 24.2197 21.0938 23.8697 21.0938 23.4385V22.3588L21.7211 22.0455L22.8852 23.2096C23.1906 23.515 23.6844 23.515 23.9898 23.2096L26.3336 20.8658C26.6391 20.5604 26.6391 20.0666 26.3336 19.7611L25.1695 18.5971L25.4828 17.9697H26.5625C26.9945 17.9697 27.3438 17.6197 27.3438 17.1885V14.0635C27.3438 13.6322 26.9945 13.2822 26.5625 13.2822H25.4828L25.1695 12.6549L26.3336 11.4908C26.6391 11.1854 26.6391 10.6916 26.3336 10.3861L23.9898 8.04238C23.6844 7.73691 23.1906 7.73691 22.8852 8.04238L21.7211 9.20645L21.0938 8.89316V7.81348C21.0938 7.38223 20.7445 7.03223 20.3125 7.03223H17.1875C16.7555 7.03223 16.4062 7.38223 16.4062 7.81348V8.89316L15.7789 9.20645L14.6148 8.04238C14.3094 7.73691 13.8156 7.73691 13.5102 8.04238L11.1664 10.3861C10.8609 10.6916 10.8609 11.1854 11.1664 11.4908L12.3305 12.6549L12.0172 13.2822H10.9375C10.5055 13.2822 10.1562 13.6322 10.1562 14.0635V17.1885C10.1562 17.6197 10.5055 17.9697 10.9375 17.9697ZM11.7188 14.8447H12.5C12.7961 14.8447 13.0664 14.6775 13.1992 14.4127L13.9805 12.8502C14.1305 12.5494 14.0719 12.1861 13.8336 11.9486L12.8234 10.9385L14.0625 9.69941L15.0727 10.7096C15.3117 10.9479 15.675 11.0057 15.9742 10.8564L17.5367 10.0752C17.8016 9.94238 17.9688 9.67207 17.9688 9.37598V8.59473H19.5312V9.37598C19.5312 9.67207 19.6984 9.94238 19.9633 10.0752L21.5258 10.8564C21.8266 11.0049 22.1891 10.9479 22.4273 10.7096L23.4375 9.69941L24.6766 10.9385L23.6664 11.9486C23.4281 12.1861 23.3695 12.5494 23.5195 12.8502L24.3008 14.4127C24.4336 14.6775 24.7039 14.8447 25 14.8447H25.7812V16.4072H25C24.7039 16.4072 24.4336 16.5744 24.3008 16.8393L23.5195 18.4018C23.3695 18.7025 23.4281 19.0658 23.6664 19.3033L24.6766 20.3135L23.4375 21.5525L22.4273 20.5424C22.1891 20.3049 21.8266 20.2479 21.5258 20.3955L19.9633 21.1768C19.6984 21.3096 19.5312 21.5799 19.5312 21.876V22.6572H17.9688V21.876C17.9688 21.5799 17.8016 21.3096 17.5367 21.1768L15.9742 20.3955C15.6734 20.2463 15.3109 20.3033 15.0727 20.5424L14.0625 21.5525L12.8234 20.3135L13.8336 19.3033C14.0719 19.0658 14.1305 18.7025 13.9805 18.4018L13.1992 16.8393C13.0664 16.5744 12.7961 16.4072 12.5 16.4072H11.7188V14.8447Z" fill="#FB532A"/>
<path d="M18.75 19.5322C20.9039 19.5322 22.6562 17.7799 22.6562 15.626C22.6562 13.4721 20.9039 11.7197 18.75 11.7197C16.5961 11.7197 14.8438 13.4721 14.8438 15.626C14.8438 17.7799 16.5961 19.5322 18.75 19.5322ZM18.75 13.2822C20.0422 13.2822 21.0938 14.3338 21.0938 15.626C21.0938 16.9182 20.0422 17.9697 18.75 17.9697C17.4578 17.9697 16.4062 16.9182 16.4062 15.626C16.4062 14.3338 17.4578 13.2822 18.75 13.2822Z" fill="#FB532A"/>
</svg>
