<svg width="50" height="46" viewBox="0 0 50 46" fill="none" xmlns="http://www.w3.org/2000/svg">
<path d="M13.5476 4.2522C12.9713 4.2522 12.5024 4.72104 12.5024 5.29732C12.5024 5.87361 12.9713 6.34245 13.5476 6.34245C14.1239 6.34245 14.5927 5.87361 14.5927 5.29732C14.5927 4.72104 14.1239 4.2522 13.5476 4.2522Z" fill="#FB532A"/>
<path d="M9.37685 4.2522C8.80057 4.2522 8.33173 4.72104 8.33173 5.29732C8.33173 5.87361 8.80057 6.34245 9.37685 6.34245C9.95314 6.34245 10.422 5.87361 10.422 5.29732C10.422 4.72104 9.95314 4.2522 9.37685 4.2522Z" fill="#FB532A"/>
<path d="M5.20611 4.2522C4.62982 4.2522 4.16098 4.72104 4.16098 5.29732C4.16098 5.87361 4.62982 6.34245 5.20611 6.34245C5.78239 6.34245 6.25123 5.87361 6.25123 5.29732C6.25123 4.72104 5.78239 4.2522 5.20611 4.2522Z" fill="#FB532A"/>
<path d="M35.4268 20.9155C33.1217 20.9155 31.2561 22.7909 31.2561 25.0863V27.1667C31.2561 29.4719 33.1217 31.3375 35.4268 31.3375C37.7222 31.3375 39.5976 29.4719 39.5976 27.1667V25.0863C39.5976 22.7909 37.732 20.9155 35.4268 20.9155ZM37.4976 27.1667C37.4976 28.3193 36.5599 29.2472 35.4171 29.2472C34.2645 29.2472 33.3366 28.3095 33.3366 27.1667V25.0863C33.3366 23.9337 34.2743 23.0058 35.4171 23.0058C36.5696 23.0058 37.4976 23.9435 37.4976 25.0863V27.1667Z" fill="#FB532A"/>
<path d="M44.8037 0.0812988H5.2061C2.33444 0.0812988 0 2.41574 0 5.28739V40.7142C0 43.5859 2.33444 45.9203 5.2061 45.9203H44.7939C47.6656 45.9203 50 43.5859 50 40.7142V5.29716C50.0098 2.42551 47.6753 0.0812988 44.8037 0.0812988ZM2.08048 5.29716C2.08048 3.57808 3.48701 2.17155 5.2061 2.17155H44.7939C46.513 2.17155 47.9195 3.57808 47.9195 5.29716V8.42277H2.08048V5.29716ZM44.8037 43.8398H5.2061C3.48701 43.8398 2.08048 42.4333 2.08048 40.7142V10.5033H47.9195V40.7142H47.9293C47.9293 42.4333 46.5228 43.8398 44.8037 43.8398Z" fill="#FB532A"/>
<path d="M16.6732 23.0058C17.9039 23.0058 18.7146 23.5918 18.7634 24.0118C18.822 24.5784 19.3104 25.0179 19.8965 24.9495C20.4727 24.8909 20.8927 24.383 20.8341 23.8165C20.6779 22.1658 18.8904 20.9253 16.6732 20.9253C14.3387 20.9253 12.5024 22.3025 12.5024 24.0509C12.5024 25.6723 13.7918 26.7174 16.3508 27.1277L16.6634 27.1765C18.3923 27.4598 18.7537 27.8993 18.7537 28.2119C18.7537 28.6221 17.9234 29.257 16.6634 29.257C15.4327 29.257 14.622 28.671 14.5732 28.251C14.5145 27.6844 14.0164 27.2449 13.4401 27.3133C12.8638 27.3719 12.4438 27.8798 12.5024 28.4463C12.6587 30.097 14.4462 31.3375 16.6634 31.3375C18.9978 31.3375 20.8341 29.9603 20.8341 28.2119C20.8341 26.5807 19.5448 25.5453 16.9955 25.1253L16.6829 25.0765C14.8564 24.7737 14.5829 24.3049 14.5829 24.0509C14.5829 23.6407 15.4132 23.0058 16.6732 23.0058Z" fill="#FB532A"/>
<path d="M29.1756 23.0058C29.7519 23.0058 30.2207 22.5369 30.2207 21.9607C30.2207 21.3844 29.7519 20.9155 29.1756 20.9155H23.9695C23.3932 20.9155 22.9244 21.3844 22.9244 21.9607V30.2924C22.9244 30.8784 23.3835 31.3375 23.9597 31.3375H29.1658C29.7421 31.3375 30.211 30.8686 30.211 30.2924C30.211 29.7161 29.7421 29.2472 29.1658 29.2472H25.0049V27.1667H28.1305C28.7068 27.1667 29.1756 26.6979 29.1756 26.1216C29.1756 25.5453 28.7068 25.0765 28.1305 25.0765H25.0049V23.0058H29.1756Z" fill="#FB532A"/>
</svg>
