<svg width="50" height="50" viewBox="0 0 50 50" fill="none" xmlns="http://www.w3.org/2000/svg">
<g clip-path="url(#clip0_251_74)">
<path d="M42.9723 0.000976562H40.8226C39.8776 0.000976562 39.8776 1.46603 40.8226 1.46603H42.9723C45.1924 1.46603 46.9986 3.26571 46.9986 5.47775V22.4306C46.9986 24.6427 45.1925 26.4424 42.9723 26.4424H40.5342C40.3733 26.4424 40.2169 26.4953 40.0891 26.5931L35.6152 30.0153V27.1749C35.6152 26.7704 35.2873 26.4424 34.8827 26.4424H25.9673C25.2372 26.4424 24.5356 26.2497 23.9167 25.8833V17.6603C23.9167 16.12 23.1322 14.7592 21.941 13.9541V5.47775C21.941 3.26571 23.7472 1.46603 25.9673 1.46603H36.2321C37.177 1.46603 37.177 0.000976563 36.2321 0.000976563H25.9673C22.9393 0.000976563 20.4759 2.45788 20.4759 5.47775V13.3102C20.1405 13.2301 19.791 13.1865 19.4314 13.1865H6.02166C3.54855 13.1865 1.53644 15.1934 1.53644 17.6603V19.242C1.53644 20.1869 3.00149 20.1869 3.00149 19.242V17.6603C3.00149 16.0012 4.35628 14.6515 6.02166 14.6515H19.4315C21.0969 14.6515 22.4518 16.0012 22.4518 17.6603V26.175C22.443 26.2396 22.4434 26.3048 22.4518 26.3689V31.029C22.4518 31.1211 22.4462 31.2128 22.4379 31.304H20.9272C19.2626 31.304 17.8749 32.5055 17.5872 34.0845C17.5206 34.1096 17.4566 34.1447 17.3973 34.1904L14.121 36.7202V34.7703C14.121 34.3657 13.7931 34.0377 13.3884 34.0377H6.02166C4.35628 34.0377 3.00149 32.688 3.00149 31.029V23.6372C3.00149 22.6923 1.53644 22.6923 1.53644 23.6372V31.0291C1.53644 33.496 3.54855 35.5029 6.02166 35.5029H12.656V38.2113C12.656 38.7989 13.3695 39.1514 13.8363 38.7912L17.5316 35.9379V44.1789C17.5316 46.0468 19.055 47.5664 20.9273 47.5664H25.4226V49.2757C25.4226 49.8631 26.1361 50.216 26.6028 49.8556L29.5676 47.5664H30.4436C32.3159 47.5664 33.8393 46.0467 33.8393 44.1789V42.8783C33.8393 41.9334 32.3742 41.9334 32.3742 42.8783V44.1789C32.3742 45.239 31.5082 46.1013 30.4436 46.1013H29.3177C29.1557 46.1013 28.9982 46.155 28.8701 46.254L26.8876 47.7845V46.8337C26.8876 46.4292 26.5597 46.1012 26.155 46.1012H20.9272C19.8627 46.1012 18.9966 45.2388 18.9966 44.1788V34.6916C18.9966 33.6315 19.8626 32.7692 20.9272 32.7692H30.4436C31.5081 32.7692 32.3742 33.6316 32.3742 34.6916V38.2878C32.3742 39.2326 33.8393 39.2326 33.8393 38.2878V34.6917C33.8393 32.8238 32.3159 31.3042 30.4436 31.3042H23.9084C23.914 31.2127 23.9168 27.5129 23.9168 27.5129C24.5627 27.7726 25.2552 27.9076 25.9674 27.9076H34.1502V31.4979C34.1502 32.084 34.8607 32.4369 35.3279 32.0797L40.7824 27.9076H42.9724C46.0003 27.9076 48.4637 25.4507 48.4637 22.4307V5.47775C48.4636 2.45788 46.0002 0.000976563 42.9723 0.000976563V0.000976562Z" fill="#FB532A"/>
<path d="M36.3002 5.41313C35.3701 5.17569 34.4223 5.91057 34.4223 6.87164C34.4223 7.9217 34.0396 8.93366 33.3452 9.72059L31.327 12.0044C31.1963 11.8039 30.9705 11.6712 30.7133 11.6712H26.7733C26.3687 11.6712 26.0408 11.9991 26.0408 12.4037V21.2687C26.0408 21.6733 26.3687 22.0013 26.7733 22.0013H30.7133C31.0094 22.0013 31.2637 21.8254 31.3792 21.5728C32.1769 22.0602 33.1013 22.3237 34.0417 22.3237H41.0049C42.0689 22.3237 42.9466 21.4004 42.8967 20.3391C42.8746 19.8691 42.8988 13.5583 42.8988 13.4182C42.8988 12.3739 42.0491 11.5242 41.007 11.5242L37.3861 11.5133L37.536 11.1583C38.2211 9.5357 38.1083 7.65418 37.2346 6.12495C37.0306 5.76767 36.6987 5.515 36.3002 5.41313C35.9015 5.31136 36.6987 5.515 36.3002 5.41313C35.3701 5.17569 36.6987 5.515 36.3002 5.41313ZM29.9808 20.5362H27.5058V13.1362H29.9808V20.5362ZM41.0049 12.9891C41.2414 12.9891 41.4338 13.1815 41.4338 13.4181C41.4338 13.5575 41.4324 13.9357 41.4304 14.4486C41.4196 17.2803 41.4123 19.9621 41.4332 20.4079C41.4409 20.5687 41.3626 20.676 41.3153 20.7256C41.2335 20.8114 41.1232 20.8585 41.0049 20.8585H34.0417C33.2117 20.8585 32.3994 20.5709 31.7542 20.0486L31.4459 19.799V14.0823L34.4435 10.6903C35.3745 9.63503 35.8873 8.27888 35.8873 6.87154C35.8873 6.83013 35.9439 6.81939 35.9626 6.85162C36.6113 7.98684 36.695 9.38363 36.1864 10.5882L35.6083 11.9574C35.5128 12.1833 35.5369 12.4419 35.672 12.6464C35.8072 12.8509 36.0358 12.9742 36.2808 12.975L41.0049 12.9891Z" fill="#FB532A"/>
<path d="M7.80882 25.4437C7.40417 25.4437 7.07629 25.7717 7.07629 26.1763C7.07629 26.5808 7.40417 26.9088 7.80882 26.9088H9.96812L9.56474 29.3485C9.49872 29.7476 9.76887 30.1247 10.168 30.1907C10.2085 30.1974 10.2486 30.2007 10.2883 30.2007C10.6403 30.2007 10.9508 29.9462 11.0102 29.5875L11.453 26.9089H13.2202L12.8168 29.3486C12.7508 29.7477 13.0209 30.1248 13.42 30.1908C13.4605 30.1975 13.5007 30.2008 13.5403 30.2008C13.8923 30.2008 14.2028 29.9463 14.2622 29.5876L14.705 26.909H17.6442C18.0489 26.909 18.3768 26.581 18.3768 26.1765C18.3768 25.7719 18.0489 25.4439 17.6442 25.4439H14.9473L15.2427 23.657H17.6442C18.0489 23.657 18.3768 23.329 18.3768 22.9244C18.3768 22.5199 18.0489 22.1919 17.6442 22.1919H15.4849L15.8883 19.7522C15.9543 19.3531 15.6842 18.976 15.2851 18.91C14.8855 18.8438 14.5089 19.1141 14.4429 19.5132L14.0001 22.1918H12.2329L12.6363 19.7521C12.7023 19.353 12.4321 18.9759 12.0331 18.9099C11.633 18.8437 11.257 19.114 11.1909 19.5131L10.748 22.1917H7.80882C7.40417 22.1917 7.07629 22.5197 7.07629 22.9242C7.07629 23.3288 7.40417 23.6568 7.80882 23.6568H10.5058L10.2103 25.4437H7.80882ZM11.9908 23.6568H13.7579L13.4625 25.4437H11.6953L11.9908 23.6568Z" fill="#FB532A"/>
<path d="M25.6766 36.5489C25.0851 36.0619 24.2981 35.8697 23.5088 36.0617C22.4972 36.3073 21.4764 37.253 21.4764 38.8117C21.4764 39.7818 21.8305 40.624 22.5588 41.3862C23.1537 42.0088 24.0123 42.6009 25.3423 43.3061C25.4497 43.363 25.5676 43.3914 25.6854 43.3914C25.8033 43.3914 25.9212 43.363 26.0286 43.3061C28.349 42.0759 29.8944 40.8409 29.8944 38.8117C29.8944 37.2445 28.8374 36.3085 27.7898 36.0761C27.0027 35.9015 26.2397 36.0869 25.6766 36.5489ZM28.4292 38.8117C28.4292 39.9062 27.7032 40.7156 25.6854 41.8264C23.6675 40.7155 22.9414 39.9061 22.9414 38.8117C22.9414 37.9973 23.413 37.5926 23.8543 37.4853C23.9357 37.4656 24.0228 37.4545 24.1124 37.4545C24.4444 37.4545 24.8093 37.6078 25.0344 38.0441C25.1626 38.2924 25.4218 38.4463 25.6999 38.4405C25.9791 38.435 26.231 38.2711 26.3491 38.0179C26.5862 37.5098 27.0847 37.4205 27.4722 37.5065C27.935 37.609 28.4292 38.0058 28.4292 38.8117Z" fill="#FB532A"/>
</g>
<defs>
<clipPath id="clip0_251_74">
<rect width="50" height="50" fill="white" transform="translate(0 0.000976562)"/>
</clipPath>
</defs>
</svg>
