<svg width="50" height="50" viewBox="0 0 50 50" fill="none" xmlns="http://www.w3.org/2000/svg">
<path d="M44.3237 47.0183H5.67633C2.54661 47.0183 0 44.4717 0 41.342V8.57574C0 5.44602 2.54661 2.89941 5.67633 2.89941H44.3237C47.4534 2.89941 50 5.44602 50 8.57574V41.342C50 44.4717 47.4534 47.0183 44.3237 47.0183ZM5.67633 4.59024C3.47883 4.59024 1.69082 6.37824 1.69082 8.57574V41.342C1.69082 43.5395 3.47883 45.3275 5.67633 45.3275H44.3237C46.5212 45.3275 48.3092 43.5395 48.3092 41.342V8.57574C48.3092 6.37824 46.5212 4.59024 44.3237 4.59024H5.67633Z" fill="#FB532A"/>
<path d="M42.3696 34.1112H29.085C28.618 34.1112 28.2396 33.7329 28.2396 33.2658C28.2396 32.7992 28.618 32.4204 29.085 32.4204H42.3696C42.8362 32.4204 43.215 32.7992 43.215 33.2658C43.215 33.7329 42.8367 34.1112 42.3696 34.1112Z" fill="#FB532A"/>
<path d="M42.3696 40.2235H29.085C28.618 40.2235 28.2396 39.8452 28.2396 39.3781C28.2396 38.9115 28.618 38.5327 29.085 38.5327H42.3696C42.8362 38.5327 43.215 38.9115 43.215 39.3781C43.215 39.8452 42.8367 40.2235 42.3696 40.2235Z" fill="#FB532A"/>
<path d="M42.3696 21.8869H29.085C28.618 21.8869 28.2396 21.5085 28.2396 21.0415C28.2396 20.5749 28.618 20.196 29.085 20.196H42.3696C42.8362 20.196 43.215 20.5749 43.215 21.0415C43.215 21.5085 42.8367 21.8869 42.3696 21.8869Z" fill="#FB532A"/>
<path d="M42.3696 27.9992H29.085C28.618 27.9992 28.2396 27.6208 28.2396 27.1538C28.2396 26.6872 28.618 26.3083 29.085 26.3083H42.3696C42.8362 26.3083 43.215 26.6872 43.215 27.1538C43.215 27.6208 42.8367 27.9992 42.3696 27.9992Z" fill="#FB532A"/>
<path d="M49.1546 14.2196H0.845411C0.378359 14.2196 0 13.8413 0 13.3742C0 12.9072 0.378359 12.5288 0.845411 12.5288H49.1546C49.6216 12.5288 50 12.9072 50 13.3742C50 13.8413 49.6216 14.2196 49.1546 14.2196Z" fill="#FB532A"/>
<path d="M12.1877 11.2065C10.737 11.2065 9.55663 10.0266 9.55663 8.5759C9.55663 7.12521 10.737 5.94531 12.1877 5.94531C13.6384 5.94531 14.8183 7.12521 14.8183 8.5759C14.8183 10.0266 13.6384 11.2065 12.1877 11.2065ZM12.1877 7.63613C11.6692 7.63613 11.2474 8.0579 11.2474 8.5759C11.2474 9.0939 11.6692 9.51566 12.1877 9.51566C12.7057 9.51566 13.1274 9.0939 13.1274 8.5759C13.1274 8.0579 12.7057 7.63613 12.1877 7.63613Z" fill="#FB532A"/>
<path d="M6.09621 11.2065C4.64599 11.2065 3.46562 10.0266 3.46562 8.5759C3.46562 7.12521 4.64599 5.94531 6.09621 5.94531C7.5469 5.94531 8.72727 7.12521 8.72727 8.5759C8.72727 10.0266 7.5469 11.2065 6.09621 11.2065ZM6.09621 7.63613C5.57821 7.63613 5.15644 8.0579 5.15644 8.5759C5.15644 9.0939 5.57821 9.51566 6.09621 9.51566C6.61468 9.51566 7.03644 9.0939 7.03644 8.5759C7.03644 8.0579 6.61468 7.63613 6.09621 7.63613Z" fill="#FB532A"/>
<path d="M18.2787 11.2065C16.828 11.2065 15.6481 10.0266 15.6481 8.5759C15.6481 7.12521 16.828 5.94531 18.2787 5.94531C19.7294 5.94531 20.9098 7.12521 20.9098 8.5759C20.9098 10.0266 19.7294 11.2065 18.2787 11.2065ZM18.2787 7.63613C17.7602 7.63613 17.3389 8.0579 17.3389 8.5759C17.3389 9.0939 17.7607 9.51566 18.2787 9.51566C18.7972 9.51566 19.2189 9.0939 19.2189 8.5759C19.2189 8.0579 18.7972 7.63613 18.2787 7.63613Z" fill="#FB532A"/>
<path d="M22.7053 40.2236H7.36715C6.9001 40.2236 6.52174 39.8452 6.52174 39.3782V21.0415C6.52174 20.5749 6.9001 20.196 7.36715 20.196H22.7053C23.1724 20.196 23.5507 20.5749 23.5507 21.0415V39.3782C23.5507 39.8452 23.1724 40.2236 22.7053 40.2236ZM8.21256 38.5328H21.8599V21.8869H8.21256V38.5328Z" fill="#FB532A"/>
</svg>
