<svg width="40" height="40" viewBox="0 0 40 40" fill="none" xmlns="http://www.w3.org/2000/svg">
<g clip-path="url(#clip0_536_55)">
<path d="M20.5 40C17.7032 37.6063 15.1108 34.9821 12.75 32.1549C9.20713 27.909 5 21.5858 5 15.5603C4.99847 12.4831 5.90677 9.4745 7.60996 6.9154C9.31315 4.3563 11.7347 2.36169 14.5681 1.18401C17.4014 0.00632481 20.5193 -0.301497 23.5271 0.299501C26.5349 0.900498 29.2975 2.3833 31.4651 4.56024C32.9082 6.00187 34.0521 7.71638 34.8305 9.60454C35.6089 11.4927 36.0064 13.517 35.9999 15.5603C35.9999 21.5858 31.7928 27.909 28.2499 32.1549C25.8891 34.9821 23.2967 37.6063 20.5 40ZM20.5 8.89495C18.7382 8.89495 17.0485 9.5972 15.8028 10.8472C14.557 12.0972 13.8571 13.7926 13.8571 15.5603C13.8571 17.3281 14.557 19.0235 15.8028 20.2735C17.0485 21.5234 18.7382 22.2257 20.5 22.2257C22.2618 22.2257 23.9514 21.5234 25.1972 20.2735C26.4429 19.0235 27.1428 17.3281 27.1428 15.5603C27.1428 13.7926 26.4429 12.0972 25.1972 10.8472C23.9514 9.5972 22.2618 8.89495 20.5 8.89495Z" fill="white"/>
</g>
<defs>
<clipPath id="clip0_536_55">
<rect width="40" height="40" fill="white"/>
</clipPath>
</defs>
</svg>
