<svg width="40" height="40" viewBox="0 0 40 40" fill="none" xmlns="http://www.w3.org/2000/svg">
<path d="M16.8963 23.09C19.152 25.4267 21.8814 27.2308 24.8927 28.3755L28.9666 25.0651C29.0873 24.9802 29.2305 24.9347 29.3772 24.9347C29.5238 24.9347 29.667 24.9802 29.7878 25.0651L37.352 30.0417C37.6392 30.218 37.8823 30.4601 38.0621 30.7488C38.2419 31.0375 38.3535 31.365 38.3881 31.7053C38.4226 32.0456 38.3793 32.3895 38.2613 32.7098C38.1434 33.0301 37.9542 33.3179 37.7086 33.5507L34.1642 37.1259C33.6567 37.638 33.0328 38.0139 32.3483 38.2199C31.6639 38.4259 30.9401 38.4557 30.2417 38.3066C23.2742 36.8371 16.8521 33.3957 11.7094 28.3755C6.68086 23.3054 3.20112 16.8542 1.69231 9.80439C1.54326 9.1022 1.57437 8.37259 1.78262 7.68628C1.99087 6.99997 2.36921 6.38024 2.88097 5.88713L6.55499 2.2678C6.78235 2.02922 7.05962 1.84626 7.36603 1.7326C7.67245 1.61895 8.00007 1.57756 8.32437 1.61152C8.64868 1.64549 8.96125 1.75393 9.23869 1.92873C9.51614 2.10354 9.75126 2.34017 9.92646 2.62091L14.962 10.2458C15.0489 10.3655 15.0958 10.5106 15.0958 10.6596C15.0958 10.8086 15.0489 10.9536 14.962 11.0734L11.6446 15.1451C12.7961 18.1586 14.59 20.8725 16.8963 23.09Z" fill="white"/>
</svg>
