<svg width="70" height="70" viewBox="0 0 70 70" fill="none" xmlns="http://www.w3.org/2000/svg">
<path fill-rule="evenodd" clip-rule="evenodd" d="M21.7723 3.10916C25.1935 2.95166 26.2843 2.91666 34.9993 2.91666C43.7143 2.91666 44.8052 2.95457 48.2235 3.10916C51.6418 3.26374 53.9752 3.80916 56.0168 4.59957C58.1548 5.40749 60.0943 6.67041 61.6985 8.30374C63.3318 9.90499 64.5918 11.8417 65.3968 13.9825C66.1902 16.0242 66.7327 18.3575 66.8902 21.77C67.0477 25.1971 67.0827 26.2879 67.0827 35C67.0827 43.715 67.0448 44.8058 66.8902 48.2271C66.7356 51.6396 66.1902 53.9729 65.3968 56.0146C64.5918 58.1557 63.3297 60.0956 61.6985 61.6992C60.0943 63.3325 58.1548 64.5925 56.0168 65.3975C53.9752 66.1908 51.6418 66.7333 48.2293 66.8908C44.8052 67.0483 43.7143 67.0833 34.9993 67.0833C26.2843 67.0833 25.1935 67.0454 21.7723 66.8908C18.3598 66.7362 16.0264 66.1908 13.9848 65.3975C11.8437 64.5924 9.90382 63.3303 8.30018 61.6992C6.66796 60.0969 5.40485 58.158 4.59893 56.0175C3.80852 53.9758 3.26602 51.6425 3.10852 48.23C2.95102 44.8029 2.91602 43.7121 2.91602 35C2.91602 26.285 2.95393 25.1942 3.10852 21.7758C3.2631 18.3575 3.80852 16.0242 4.59893 13.9825C5.40604 11.8419 6.67011 9.90299 8.3031 8.30082C9.90447 6.66895 11.8424 5.40587 13.9818 4.59957C16.0235 3.80916 18.3568 3.26666 21.7693 3.10916H21.7723ZM47.9639 8.88416C44.5806 8.72957 43.5656 8.69749 34.9993 8.69749C26.4331 8.69749 25.4181 8.72957 22.0348 8.88416C18.9052 9.02707 17.2077 9.54916 16.076 9.98957C14.5798 10.5729 13.5093 11.2642 12.3864 12.3871C11.322 13.4226 10.5028 14.6833 9.98893 16.0767C9.54852 17.2083 9.02643 18.9058 8.88352 22.0354C8.72893 25.4187 8.69685 26.4337 8.69685 35C8.69685 43.5662 8.72893 44.5812 8.88352 47.9646C9.02643 51.0942 9.54852 52.7917 9.98893 53.9233C10.5023 55.3146 11.3218 56.5775 12.3864 57.6129C13.4218 58.6775 14.6848 59.4971 16.076 60.0104C17.2077 60.4508 18.9052 60.9729 22.0348 61.1158C25.4181 61.2704 26.4302 61.3025 34.9993 61.3025C43.5685 61.3025 44.5806 61.2704 47.9639 61.1158C51.0935 60.9729 52.791 60.4508 53.9227 60.0104C55.4189 59.4271 56.4893 58.7358 57.6123 57.6129C58.6768 56.5775 59.4964 55.3146 60.0098 53.9233C60.4502 52.7917 60.9723 51.0942 61.1152 47.9646C61.2698 44.5812 61.3018 43.5662 61.3018 35C61.3018 26.4337 61.2698 25.4187 61.1152 22.0354C60.9723 18.9058 60.4502 17.2083 60.0098 16.0767C59.4264 14.5804 58.7352 13.51 57.6123 12.3871C56.5766 11.3227 55.316 10.5035 53.9227 9.98957C52.791 9.54916 51.0935 9.02707 47.9639 8.88416ZM30.9014 44.8904C33.19 45.8431 35.7384 45.9717 38.1112 45.2542C40.4841 44.5367 42.5342 43.0177 43.9115 40.9565C45.2888 38.8954 45.9078 36.42 45.6628 33.9532C45.4178 31.4864 44.3239 29.1812 42.5681 27.4312C41.4488 26.3126 40.0954 25.4561 38.6053 24.9233C37.1153 24.3906 35.5256 24.1948 33.9508 24.3501C32.376 24.5054 30.8552 25.008 29.4979 25.8216C28.1407 26.6352 26.9807 27.7397 26.1015 29.0554C25.2223 30.3711 24.6457 31.8654 24.4134 33.4307C24.181 34.996 24.2985 36.5933 24.7576 38.1077C25.2166 39.6221 26.0058 41.0159 27.0681 42.1888C28.1305 43.3616 29.4397 44.2843 30.9014 44.8904ZM23.3385 23.3392C24.8698 21.8078 26.6878 20.5931 28.6886 19.7644C30.6893 18.9356 32.8337 18.5091 34.9993 18.5091C37.165 18.5091 39.3094 18.9356 41.3101 19.7644C43.3109 20.5931 45.1289 21.8078 46.6602 23.3392C48.1915 24.8705 49.4062 26.6884 50.235 28.6892C51.0637 30.69 51.4903 32.8344 51.4903 35C51.4903 37.1656 51.0637 39.31 50.235 41.3108C49.4062 43.3116 48.1915 45.1295 46.6602 46.6608C43.5675 49.7535 39.373 51.4909 34.9993 51.4909C30.6257 51.4909 26.4312 49.7535 23.3385 46.6608C20.2459 43.5682 18.5084 39.3736 18.5084 35C18.5084 30.6263 20.2459 26.4318 23.3385 23.3392ZM55.1477 20.965C55.5272 20.607 55.8309 20.1766 56.0411 19.6991C56.2512 19.2216 56.3634 18.7068 56.371 18.1852C56.3786 17.6636 56.2815 17.1458 56.0853 16.6624C55.8892 16.179 55.5981 15.7398 55.2292 15.3709C54.8604 15.0021 54.4212 14.7109 53.9378 14.5148C53.4544 14.3187 52.9366 14.2216 52.415 14.2292C51.8934 14.2368 51.3786 14.349 50.9011 14.5591C50.4236 14.7692 49.9931 15.073 49.6352 15.4525C48.939 16.1905 48.5579 17.1708 48.5726 18.1852C48.5874 19.1996 48.997 20.1684 49.7144 20.8858C50.4318 21.6032 51.4005 22.0127 52.415 22.0275C53.4294 22.0423 54.4097 21.6612 55.1477 20.965Z" fill="white"/>
</svg>
