<svg width="70" height="70" viewBox="0 0 70 70" fill="none" xmlns="http://www.w3.org/2000/svg">
<path d="M68.9583 14.3996C66.5228 15.4787 63.9066 16.2079 61.1562 16.5375C63.9941 14.8394 66.1173 12.1668 67.1295 9.01833C64.4632 10.6021 61.5451 11.7168 58.502 12.3142C56.4556 10.1292 53.7451 8.68095 50.7913 8.1943C47.8375 7.70765 44.8056 8.20981 42.1664 9.62282C39.5273 11.0358 37.4284 13.2806 36.1958 16.0087C34.9631 18.7368 34.6656 21.7955 35.3495 24.71C29.9469 24.4387 24.6618 23.0345 19.837 20.5885C15.0122 18.1424 10.7557 14.7092 7.34367 10.5117C6.177 12.5242 5.50617 14.8575 5.50617 17.3425C5.50487 19.5796 6.05577 21.7824 7.10998 23.7555C8.1642 25.7286 9.68914 27.4109 11.5495 28.6533C9.39198 28.5847 7.28205 28.0017 5.39534 26.9529V27.1279C5.39512 30.2655 6.48043 33.3065 8.46712 35.735C10.4538 38.1635 13.2195 39.8298 16.2949 40.4513C14.2935 40.9929 12.1951 41.0727 10.1583 40.6846C11.026 43.3843 12.7162 45.7451 14.9922 47.4364C17.2683 49.1278 20.0163 50.0651 22.8516 50.1171C18.0386 53.8954 12.0946 55.9448 5.97575 55.9358C4.89187 55.9361 3.80889 55.8728 2.73242 55.7463C8.94339 59.7397 16.1734 61.8591 23.5574 61.8508C48.5533 61.8508 62.2178 41.1483 62.2178 23.1933C62.2178 22.61 62.2033 22.0208 62.177 21.4375C64.8349 19.5153 67.1292 17.1351 68.9524 14.4083L68.9583 14.3996Z" fill="white"/>
</svg>
