<svg width="70" height="70" viewBox="0 0 70 70" fill="none" xmlns="http://www.w3.org/2000/svg">
<g clip-path="url(#clip0_448_6)">
<path fill-rule="evenodd" clip-rule="evenodd" d="M68.3958 17.3483C68.88 15.7558 68.3958 14.5833 66.0771 14.5833H58.4208C56.4725 14.5833 55.5742 15.5954 55.0871 16.7125C55.0871 16.7125 51.1933 26.0342 45.6779 32.0892C43.8929 33.845 43.0821 34.4021 42.1079 34.4021C41.6208 34.4021 40.8887 33.845 40.8887 32.2496V17.3483C40.8887 15.435 40.3521 14.5833 38.7304 14.5833H26.6904C25.4742 14.5833 24.7421 15.47 24.7421 16.3129C24.7421 18.1242 27.5012 18.5442 27.7842 23.6425V34.72C27.7842 37.1496 27.3379 37.59 26.3637 37.59C23.7679 37.59 17.4533 28.2246 13.7054 17.5087C12.9792 15.4233 12.2442 14.5833 10.2871 14.5833H2.625C0.4375 14.5833 0 15.5954 0 16.7125C0 18.7017 2.59583 28.5833 12.0896 41.6529C18.4187 50.5779 27.3292 55.4167 35.4462 55.4167C40.3142 55.4167 40.915 54.3433 40.915 52.4912V45.745C40.915 43.5954 41.3758 43.1667 42.9187 43.1667C44.0562 43.1667 46.0017 43.7267 50.5458 48.0287C55.7375 53.13 56.5921 55.4167 59.5146 55.4167H67.1708C69.3583 55.4167 70.455 54.3433 69.825 52.22C69.1308 50.1083 66.6517 47.0429 63.3646 43.4058C61.5796 41.335 58.9021 39.1037 58.0883 37.9867C56.9537 36.5546 57.2775 35.9158 58.0883 34.6412C58.0883 34.6412 67.4217 21.7321 68.3929 17.3483H68.3958Z" fill="white"/>
</g>
<defs>
<clipPath id="clip0_448_6">
<rect width="70" height="70" fill="white"/>
</clipPath>
</defs>
</svg>
