<svg width="20" height="20" viewBox="0 0 20 20" fill="none" xmlns="http://www.w3.org/2000/svg">
<path fill-rule="evenodd" clip-rule="evenodd" d="M6.22087 0.888401C7.19837 0.843401 7.51004 0.833401 10 0.833401C12.49 0.833401 12.8017 0.844234 13.7784 0.888401C14.755 0.932567 15.4217 1.0884 16.005 1.31423C16.6159 1.54507 17.17 1.9059 17.6284 2.37257C18.095 2.83007 18.455 3.3834 18.685 3.99507C18.9117 4.5784 19.0667 5.24507 19.1117 6.22007C19.1567 7.19923 19.1667 7.5109 19.1667 10.0001C19.1667 12.4901 19.1559 12.8017 19.1117 13.7792C19.0675 14.7542 18.9117 15.4209 18.685 16.0042C18.455 16.616 18.0944 17.1702 17.6284 17.6284C17.17 18.0951 16.6159 18.4551 16.005 18.6851C15.4217 18.9117 14.755 19.0667 13.78 19.1117C12.8017 19.1567 12.49 19.1667 10 19.1667C7.51004 19.1667 7.19837 19.1559 6.22087 19.1117C5.24587 19.0676 4.57921 18.9117 3.99587 18.6851C3.38414 18.455 2.82989 18.0944 2.37171 17.6284C1.90536 17.1706 1.54447 16.6166 1.31421 16.0051C1.08837 15.4217 0.933374 14.7551 0.888374 13.7801C0.843374 12.8009 0.833374 12.4892 0.833374 10.0001C0.833374 7.51007 0.844207 7.1984 0.888374 6.22173C0.932541 5.24507 1.08837 4.5784 1.31421 3.99507C1.54481 3.38347 1.90597 2.8295 2.37254 2.37173C2.83007 1.90549 3.38377 1.5446 3.99504 1.31423C4.57837 1.0884 5.24504 0.933401 6.22004 0.888401H6.22087ZM13.7042 2.5384C12.7375 2.49423 12.4475 2.48507 10 2.48507C7.55254 2.48507 7.26254 2.49423 6.29587 2.5384C5.40171 2.57923 4.91671 2.7284 4.59337 2.85423C4.16587 3.0209 3.86004 3.2184 3.53921 3.53923C3.23508 3.83511 3.00102 4.1953 2.85421 4.5934C2.72837 4.91673 2.57921 5.40173 2.53837 6.2959C2.49421 7.26257 2.48504 7.55257 2.48504 10.0001C2.48504 12.4476 2.49421 12.7376 2.53837 13.7042C2.57921 14.5984 2.72837 15.0834 2.85421 15.4067C3.00087 15.8042 3.23504 16.1651 3.53921 16.4609C3.83504 16.7651 4.19587 16.9992 4.59337 17.1459C4.91671 17.2717 5.40171 17.4209 6.29587 17.4617C7.26254 17.5059 7.55171 17.5151 10 17.5151C12.4484 17.5151 12.7375 17.5059 13.7042 17.4617C14.5984 17.4209 15.0834 17.2717 15.4067 17.1459C15.8342 16.9792 16.14 16.7817 16.4609 16.4609C16.765 16.1651 16.9992 15.8042 17.1459 15.4067C17.2717 15.0834 17.4209 14.5984 17.4617 13.7042C17.5059 12.7376 17.515 12.4476 17.515 10.0001C17.515 7.55257 17.5059 7.26257 17.4617 6.2959C17.4209 5.40173 17.2717 4.91673 17.1459 4.5934C16.9792 4.1659 16.7817 3.86007 16.4609 3.53923C16.165 3.23513 15.8048 3.00108 15.4067 2.85423C15.0834 2.7284 14.5984 2.57923 13.7042 2.5384ZM8.82921 12.8259C9.48309 13.0981 10.2112 13.1348 10.8891 12.9298C11.5671 12.7248 12.1529 12.2908 12.5464 11.7019C12.9399 11.113 13.1167 10.4058 13.0467 9.70099C12.9767 8.99618 12.6642 8.33754 12.1625 7.83757C11.8427 7.51796 11.456 7.27324 11.0303 7.12102C10.6046 6.9688 10.1504 6.91287 9.70045 6.95725C9.25051 7.00163 8.816 7.14522 8.42821 7.37768C8.04042 7.61014 7.70899 7.92569 7.45779 8.30161C7.20659 8.67753 7.04186 9.10448 6.97547 9.5517C6.90907 9.99893 6.94267 10.4553 7.07382 10.888C7.20498 11.3207 7.43044 11.7189 7.73397 12.054C8.03751 12.3891 8.41156 12.6527 8.82921 12.8259ZM6.66837 6.6684C7.10589 6.23088 7.62531 5.88382 8.19695 5.64704C8.7686 5.41025 9.38129 5.28838 10 5.28838C10.6188 5.28838 11.2315 5.41025 11.8031 5.64704C12.3748 5.88382 12.8942 6.23088 13.3317 6.6684C13.7692 7.10592 14.1163 7.62533 14.3531 8.19698C14.5899 8.76863 14.7117 9.38132 14.7117 10.0001C14.7117 10.6188 14.5899 11.2315 14.3531 11.8032C14.1163 12.3748 13.7692 12.8942 13.3317 13.3317C12.4481 14.2153 11.2497 14.7118 10 14.7118C8.75042 14.7118 7.55198 14.2153 6.66837 13.3317C5.78476 12.4481 5.28835 11.2497 5.28835 10.0001C5.28835 8.75045 5.78476 7.55201 6.66837 6.6684ZM15.7567 5.99007C15.8651 5.88779 15.9519 5.7648 16.012 5.62838C16.072 5.49196 16.104 5.34487 16.1062 5.19584C16.1084 5.04681 16.0806 4.89886 16.0246 4.76074C15.9686 4.62263 15.8854 4.49716 15.78 4.39177C15.6746 4.28637 15.5491 4.2032 15.411 4.14717C15.2729 4.09113 15.125 4.06338 14.9759 4.06555C14.8269 4.06773 14.6798 4.09978 14.5434 4.15981C14.407 4.21985 14.284 4.30665 14.1817 4.41507C13.9828 4.62593 13.8739 4.906 13.8781 5.19584C13.8823 5.48568 13.9994 5.76247 14.2043 5.96744C14.4093 6.17241 14.6861 6.28942 14.9759 6.29365C15.2658 6.29788 15.5458 6.18898 15.7567 5.99007Z" fill="white"/>
</svg>
