<svg width="20" height="16" viewBox="0 0 20 16" fill="none" xmlns="http://www.w3.org/2000/svg">
<path d="M19.7023 2.11418C19.0065 2.42251 18.259 2.63085 17.4731 2.72501C18.284 2.23984 18.8906 1.47624 19.1798 0.57668C18.418 1.02917 17.5843 1.34768 16.7148 1.51835C16.1301 0.894068 15.3557 0.480285 14.5117 0.341242C13.6678 0.202198 12.8016 0.345673 12.0475 0.749391C11.2935 1.15311 10.6938 1.79448 10.3416 2.57393C9.98942 3.35338 9.90442 4.2273 10.0998 5.06001C8.55621 4.98251 7.04616 4.5813 5.66766 3.88243C4.28916 3.18356 3.07301 2.20265 2.09814 1.00335C1.76481 1.57835 1.57314 2.24501 1.57314 2.95501C1.57277 3.59418 1.73017 4.22355 2.03137 4.78729C2.33258 5.35103 2.76827 5.83171 3.29981 6.18668C2.68337 6.16707 2.08053 6.0005 1.54147 5.70085V5.75085C1.54141 6.6473 1.8515 7.51616 2.41913 8.21001C2.98675 8.90386 3.77695 9.37996 4.65564 9.55751C4.08379 9.71228 3.48425 9.73507 2.90231 9.62418C3.15022 10.3955 3.63314 11.07 4.28345 11.5533C4.93376 12.0365 5.7189 12.3043 6.52897 12.3192C5.15383 13.3987 3.45555 13.9843 1.70731 13.9817C1.39762 13.9818 1.0882 13.9637 0.78064 13.9275C2.5552 15.0685 4.62092 15.674 6.73064 15.6717C13.8723 15.6717 17.7765 9.75668 17.7765 4.62668C17.7765 4.46001 17.7723 4.29168 17.7648 4.12501C18.5242 3.57582 19.1797 2.89576 19.7006 2.11668L19.7023 2.11418Z" fill="white"/>
</svg>
