<svg width="20" height="12" viewBox="0 0 20 12" fill="none" xmlns="http://www.w3.org/2000/svg">
<path fill-rule="evenodd" clip-rule="evenodd" d="M19.5417 0.956599C19.68 0.501599 19.5417 0.166599 18.8792 0.166599H16.6917C16.135 0.166599 15.8783 0.455766 15.7392 0.774933C15.7392 0.774933 14.6267 3.43827 13.0508 5.16827C12.5408 5.66993 12.3092 5.8291 12.0308 5.8291C11.8917 5.8291 11.6825 5.66993 11.6825 5.2141V0.956599C11.6825 0.409933 11.5292 0.166599 11.0658 0.166599H7.62583C7.27833 0.166599 7.06917 0.419933 7.06917 0.660766C7.06917 1.17827 7.8575 1.29827 7.93833 2.75493V5.91993C7.93833 6.6141 7.81083 6.73993 7.5325 6.73993C6.79083 6.73993 4.98667 4.0641 3.91583 1.00243C3.70833 0.406599 3.49833 0.166599 2.93917 0.166599H0.75C0.125 0.166599 0 0.455766 0 0.774933C0 1.34327 0.741667 4.1666 3.45417 7.90077C5.2625 10.4508 7.80833 11.8333 10.1275 11.8333C11.5183 11.8333 11.69 11.5266 11.69 10.9974V9.06993C11.69 8.45577 11.8217 8.33327 12.2625 8.33327C12.5875 8.33327 13.1433 8.49327 14.4417 9.72243C15.925 11.1799 16.1692 11.8333 17.0042 11.8333H19.1917C19.8167 11.8333 20.13 11.5266 19.95 10.9199C19.7517 10.3166 19.0433 9.44077 18.1042 8.4016C17.5942 7.80993 16.8292 7.17243 16.5967 6.85327C16.2725 6.4441 16.365 6.2616 16.5967 5.89743C16.5967 5.89743 19.2633 2.2091 19.5408 0.956599H19.5417Z" fill="white"/>
</svg>
