<svg width="60" height="60" viewBox="0 0 60 60" fill="none" xmlns="http://www.w3.org/2000/svg">
<path d="M0 30C0 13.4314 13.4314 0 30 0C46.5686 0 60 13.4314 60 30C60 46.5686 46.5686 60 30 60C13.4314 60 0 46.5686 0 30Z" fill="white"/>
<path fill-rule="evenodd" clip-rule="evenodd" d="M29.3929 0C29.2512 12.3422 28.4441 19.2495 23.8468 23.8468C19.2495 28.4441 12.3422 29.2512 0 29.3929V31.184C12.3422 31.3257 19.2495 32.1328 23.8468 36.7301C28.372 41.2552 29.2249 48.0185 29.3857 60H31.1912C31.3519 48.0185 32.2049 41.2552 36.7301 36.7301C41.2552 32.2049 48.0185 31.3519 60 31.1912V29.3856C48.0185 29.2249 41.2552 28.372 36.7301 23.8468C32.1328 19.2495 31.3257 12.3422 31.184 0H29.3929Z" fill="black"/>
</svg>
