<svg width="40" height="40" fill="none" xmlns="http://www.w3.org/2000/svg"><g clip-path="url(#clip0_536_55)"><path d="M20.5 40a66.046 66.046 0 01-7.75-7.845C9.207 27.909 5 21.585 5 15.56a15.59 15.59 0 012.61-8.645 15.511 15.511 0 016.958-5.731A15.45 15.45 0 0123.528.3a15.484 15.484 0 017.937 4.26 15.457 15.457 0 013.366 5.045A15.498 15.498 0 0136 15.56c0 6.026-4.207 12.349-7.75 16.595A66.053 66.053 0 0120.5 40zm0-31.105a6.631 6.631 0 00-4.697 1.952 6.677 6.677 0 00-1.946 4.713c0 1.768.7 3.463 1.946 4.713a6.632 6.632 0 004.697 1.953 6.632 6.632 0 004.697-1.953 6.677 6.677 0 001.946-4.713c0-1.767-.7-3.463-1.946-4.713A6.632 6.632 0 0020.5 8.895z" fill="#fff"/></g><defs><clipPath id="clip0_536_55"><path fill="#fff" d="M0 0h40v40H0z"/></clipPath></defs></svg>