<svg width="40" height="40" fill="none" xmlns="http://www.w3.org/2000/svg"><path d="M16.896 23.09a21.97 21.97 0 007.997 5.285l4.074-3.31a.713.713 0 01.82 0l7.565 4.977c.287.176.53.418.71.707a2.238 2.238 0 01.2 1.96 2.21 2.21 0 01-.553.842l-3.545 3.575a4.304 4.304 0 01-1.816 1.094 4.236 4.236 0 01-2.106.087c-6.968-1.47-13.39-4.911-18.533-9.932-5.028-5.07-8.508-11.52-10.017-18.57a4.256 4.256 0 01.09-2.119 4.185 4.185 0 011.099-1.799l3.674-3.62c.227-.238.505-.42.811-.534a2.12 2.12 0 011.873.196c.277.175.512.411.687.692l5.036 7.625a.705.705 0 010 .827l-3.317 4.072a21.823 21.823 0 005.251 7.945z" fill="#fff"/></svg>