<svg width="60" height="60" fill="none" xmlns="http://www.w3.org/2000/svg"><path fill-rule="evenodd" clip-rule="evenodd" d="M60 30c0 16.569-13.431 30-30 30C13.431 60 0 46.569 0 30 0 13.431 13.431 0 30 0c16.569 0 30 13.431 30 30zm-28.925-7.853c-2.918 1.214-8.75 3.726-17.495 7.536-1.42.565-2.164 1.117-2.232 1.658-.115.913 1.029 1.272 2.586 1.762.212.066.43.135.656.209 1.532.497 3.592 1.08 4.663 1.103.972.021 2.056-.38 3.254-1.202 8.17-5.515 12.389-8.303 12.654-8.364.187-.042.445-.095.62.06.176.157.16.452.14.531-.113.483-4.6 4.655-6.923 6.814-.724.674-1.238 1.151-1.343 1.26-.235.244-.475.475-.705.697-1.423 1.372-2.49 2.401.059 4.081 1.225.807 2.205 1.475 3.183 2.14 1.068.728 2.134 1.454 3.512 2.357.351.23.687.47 1.013.702 1.243.886 2.36 1.682 3.74 1.556.801-.074 1.63-.828 2.05-3.076.994-5.313 2.947-16.825 3.399-21.569.04-.415-.01-.947-.05-1.18-.04-.234-.124-.567-.428-.813-.359-.292-.914-.353-1.162-.349-1.128.02-2.86.622-11.19 4.087z" fill="#fff"/></svg>