<svg width="20" height="16" fill="none" xmlns="http://www.w3.org/2000/svg"><path d="M19.702 2.114a7.773 7.773 0 01-2.229.611A3.891 3.891 0 0019.18.577a7.75 7.75 0 01-2.465.941A3.883 3.883 0 0010.1 5.06a11.024 11.024 0 01-8.002-4.057A3.883 3.883 0 003.3 6.186a3.872 3.872 0 01-1.759-.485v.05a3.883 3.883 0 003.115 3.807 3.91 3.91 0 01-1.754.066A3.885 3.885 0 006.53 12.32a7.79 7.79 0 01-5.748 1.608 10.98 10.98 0 005.95 1.745c7.141 0 11.045-5.915 11.045-11.045 0-.167-.004-.335-.011-.502A7.892 7.892 0 0019.7 2.117l.001-.003z" fill="#fff"/></svg>