<svg width="20" height="12" fill="none" xmlns="http://www.w3.org/2000/svg"><path fill-rule="evenodd" clip-rule="evenodd" d="M19.542.957c.138-.455 0-.79-.663-.79h-2.187c-.557 0-.814.289-.953.608 0 0-1.112 2.663-2.688 4.393-.51.502-.742.661-1.02.661-.14 0-.349-.16-.349-.615V.957c0-.547-.153-.79-.616-.79h-3.44c-.348 0-.557.253-.557.494 0 .517.788.637.87 2.094V5.92c0 .694-.128.82-.407.82-.741 0-2.545-2.676-3.616-5.738-.208-.595-.418-.835-.977-.835H.75C.125.167 0 .456 0 .775 0 1.343.742 4.167 3.454 7.9c1.808 2.55 4.354 3.932 6.673 3.932 1.391 0 1.563-.306 1.563-.836V9.07c0-.614.132-.737.572-.737.325 0 .881.16 2.18 1.39 1.483 1.457 1.727 2.11 2.562 2.11h2.188c.625 0 .938-.306.758-.913-.198-.603-.907-1.48-1.846-2.518-.51-.592-1.275-1.23-1.507-1.549-.325-.409-.232-.591 0-.956 0 0 2.666-3.688 2.944-4.94z" fill="#fff"/></svg>