<svg width="60" height="60" fill="none" xmlns="http://www.w3.org/2000/svg"><path fill-rule="evenodd" clip-rule="evenodd" d="M4.218 4.218C0 8.435 0 15.223 0 28.8v2.4c0 13.576 0 20.365 4.218 24.582C8.435 60 15.223 60 28.8 60h2.4c13.576 0 20.365 0 24.582-4.218C60 51.565 60 44.777 60 31.2v-2.4c0-13.577 0-20.365-4.218-24.582C51.565 0 44.777 0 31.2 0h-2.4C15.223 0 8.435 0 4.218 4.218zm5.907 14.032c.325 15.6 8.125 24.975 21.8 24.975h.775V34.3c5.025.5 8.825 4.175 10.35 8.925h7.1C48.2 36.125 43.075 32.2 39.875 30.7c3.2-1.85 7.7-6.35 8.775-12.45H42.2c-1.4 4.95-5.55 9.45-9.5 9.875V18.25h-6.45v17.3c-4-1-9.05-5.85-9.275-17.3h-6.85z" fill="#fff"/></svg>