<svg width="60" height="60" fill="none" xmlns="http://www.w3.org/2000/svg"><path d="M0 30C0 13.431 13.431 0 30 0c16.569 0 30 13.431 30 30 0 16.569-13.431 30-30 30C13.431 60 0 46.569 0 30z" fill="#fff"/><path fill-rule="evenodd" clip-rule="evenodd" d="M29.393 0c-.142 12.342-.949 19.25-5.546 23.847C19.249 28.444 12.342 29.25 0 29.393v1.791c12.342.142 19.25.949 23.847 5.546 4.525 4.525 5.378 11.289 5.539 23.27h1.805c.16-11.981 1.014-18.745 5.54-23.27 4.524-4.525 11.288-5.378 23.269-5.539v-1.805c-11.981-.161-18.745-1.014-23.27-5.54C32.133 19.25 31.326 12.343 31.184 0h-1.791z" fill="#000"/></svg>