<svg width="50" height="50" fill="none" xmlns="http://www.w3.org/2000/svg"><g clip-path="url(#clip0_251_54)" fill="#FB532A"><path d="M20.014 21.345a2.541 2.541 0 001.83-4.302l-1.172-1.218a.849.849 0 00-.594-.259.875.875 0 00-.603.236l-2.447 2.351-2.44 2.351a.847.847 0 101.174 1.221l1.83-1.763.225.233-1.09 3.077a.849.849 0 00.953 1.125.845.845 0 00.643-.56l.927-2.617c.247.08.504.123.764.125zm.022-3.737l.588.61a.85.85 0 01-1.223 1.18l-.588-.612 1.223-1.178zm-4.053-.538a2.52 2.52 0 001.68-.702 2.542 2.542 0 00.067-3.593l-1.176-1.221a.847.847 0 00-1.197-.022l-4.881 4.701a.847.847 0 00-.022 1.198l1.174 1.22a2.524 2.524 0 001.78.779h.049a2.523 2.523 0 002.523-2.36h.003zm-.061-3.727l.587.61a.847.847 0 01-.023 1.198.755.755 0 01-.603.237.841.841 0 01-.593-.259l-.587-.61 1.219-1.176zm-1.877 4.159a.771.771 0 01-.603.237.842.842 0 01-.593-.26l-.587-.61 1.22-1.175.587.61a.847.847 0 01-.024 1.195v.003zm12.501 4.425a.846.846 0 00-.946-.19l-6.645 2.871a.847.847 0 00.672 1.555l1.122-.485 1.83 1.901-.526 1.102a.847.847 0 001.526.731l3.12-6.532a.847.847 0 00-.153-.953zM22.41 24.96l1.788-.773-.838 1.758-.95-.986zm10.601 3.679a.847.847 0 00-1.198-.023l-2.755 2.652 1.224-4.887a.847.847 0 00-1.408-.816l-4.882 4.702a.847.847 0 001.175 1.22l2.754-2.653-1.224 4.888a.847.847 0 001.41.817l4.88-4.702a.848.848 0 00.024-1.198zm1.763 1.831a.85.85 0 00-.593-.26.942.942 0 00-.603.237l-4.882 4.701a.848.848 0 00-.022 1.197l.588.611a4.237 4.237 0 106.1-5.876l-.588-.61zm-.7 5.378a2.542 2.542 0 01-3.593-.067l3.66-3.527a2.542 2.542 0 01-.066 3.594zm11.601-6.088l.95-.95-1.198-1.198-.95.95v-1.344h-1.694v1.344l-.95-.95-1.198 1.198.95.95H40.24v1.694h1.343l-.949.95 1.198 1.199.95-.95v1.343h1.694v-1.344l.95.95 1.198-1.197-.95-.95h1.343V29.76h-1.343z"/><path d="M43.63 24.253a6.32 6.32 0 00-4.036 1.45L17.91 3.191a.846.846 0 00-.666-.258l-14.003.904-1.492-1.548A.847.847 0 10.53 3.465l1.474 1.53L.01 18.324c-.04.26.044.523.227.713L27.86 47.715a.847.847 0 001.198.022l11.838-11.403a6.354 6.354 0 102.734-12.081zM3.486 6.535L4.75 7.846a2.536 2.536 0 002.22 3.674h.048a2.541 2.541 0 10.047-5.083 2.443 2.443 0 00-1.094.233L4.78 5.436l12.181-.787.316.328L2.633 19.083l-.886-.921 1.74-11.627zM6.43 8.368a.838.838 0 01.586-.237h.017a.847.847 0 01.57 1.457.796.796 0 01-.603.236.847.847 0 01-.571-1.456zm22.063 37.56l-3.742-3.884h7.775l-4.033 3.885zm5.765-5.553v-.026h-11.14L3.812 20.303l14.64-14.106 19.994 20.756a6.322 6.322 0 001.006 8.427l-5.194 4.995zm9.372-5.109a4.66 4.66 0 110-9.319 4.66 4.66 0 010 9.32z"/></g><defs><clipPath id="clip0_251_54"><path fill="#fff" transform="translate(0 .001)" d="M0 0h50v50H0z"/></clipPath></defs></svg>