<svg width="30" height="50" fill="none" xmlns="http://www.w3.org/2000/svg"><g clip-path="url(#clip0_244_39)" fill="#FB532A"><path d="M19.583 4.168h-5a1.25 1.25 0 100 2.5h5a1.25 1.25 0 100-2.5z"/><path d="M25 .001H5c-2.757 0-5 2.243-5 5v40c0 2.757 2.243 5 5 5h20c2.757 0 5-2.243 5-5v-40c0-2.757-2.243-5-5-5zm2.5 45a2.5 2.5 0 01-2.5 2.5H5a2.5 2.5 0 01-2.5-2.5v-40a2.5 2.5 0 012.5-2.5h20a2.5 2.5 0 012.5 2.5v40z"/><path d="M15 45.834a2.5 2.5 0 100-5 2.5 2.5 0 000 5zM10.417 6.668a1.25 1.25 0 100-2.5 1.25 1.25 0 000 2.5z"/></g><defs><clipPath id="clip0_244_39"><path fill="#fff" transform="translate(0 .001)" d="M0 0h30v50H0z"/></clipPath></defs></svg>