<svg width="50" height="50" fill="none" xmlns="http://www.w3.org/2000/svg"><path d="M45.313.782H4.687A3.91 3.91 0 00.781 4.688v28.907A3.91 3.91 0 004.687 37.5h14.62a5.461 5.461 0 011.006 3.125c0 .816-.193 1.614-.539 2.344h-3.368a3.91 3.91 0 00-3.906 3.906v1.563c0 .43.35.78.781.78H36.72a.78.78 0 00.781-.78v-1.563a3.91 3.91 0 00-3.906-3.906h-3.368a5.464 5.464 0 01-.538-2.344c0-1.138.356-2.206 1.002-3.125h14.622a3.91 3.91 0 003.907-3.906V4.688A3.91 3.91 0 0045.312.782zM4.687 2.345h40.626a2.347 2.347 0 012.343 2.343v21.875h-1.562V5.47c0-.862-.701-1.563-1.563-1.563H5.47c-.862 0-1.563.701-1.563 1.563v21.093H2.344V4.688a2.347 2.347 0 012.344-2.343zm26.694 10.158a3.784 3.784 0 012.295-.783c1.612 0 3.06 1.044 3.6 2.6.11.314.405.525.738.525h6.517v1.562h-6.526a.78.78 0 00-.737.522c-.471 1.34-1.638 2.341-2.974 2.553a3.78 3.78 0 01-2.917-.734 3.128 3.128 0 002.998-3.122 3.13 3.13 0 00-2.994-3.123zm13.15.78H38.54c-.883-1.89-2.773-3.126-4.863-3.126a5.389 5.389 0 00-4.667 2.74.781.781 0 00.68 1.166h1.561c.862 0 1.563.701 1.563 1.563s-.701 1.563-1.564 1.563h-1.562a.781.781 0 00-.678 1.168c.979 1.72 2.75 2.738 4.668 2.738.285 0 .573-.023.863-.068 1.713-.273 3.226-1.449 3.987-3.056h6.004v8.593H5.47V5.47h39.06v7.812zm-8.593 33.593v.781H14.061v-.781a2.347 2.347 0 012.344-2.344h17.188a2.347 2.347 0 012.343 2.344zM28.54 42.97h-7.08c.265-.75.416-1.54.416-2.344 0-1.09-.26-2.16-.74-3.125h7.73a7.06 7.06 0 00-.74 3.125c0 .803.152 1.594.416 2.344zm16.771-7.032H4.688a2.347 2.347 0 01-2.344-2.343v-5.469h45.312v5.469a2.347 2.347 0 01-2.343 2.343z" fill="#FB532A"/><path d="M25 29.689a2.347 2.347 0 00-2.344 2.343A2.347 2.347 0 0025 34.376a2.347 2.347 0 002.344-2.344A2.347 2.347 0 0025 29.69zm0 3.124a.782.782 0 11.002-1.564.782.782 0 01-.002 1.564zM10.938 17.97h1.08l.313.627-1.165 1.164a.78.78 0 000 1.105l2.344 2.344a.78.78 0 001.105 0l1.164-1.165.627.314v1.08c0 .43.35.78.782.78h3.125a.78.78 0 00.78-.78v-1.08l.628-.314 1.164 1.165a.78.78 0 001.105 0l2.344-2.344a.78.78 0 000-1.105l-1.165-1.164.314-.627h1.08a.78.78 0 00.78-.781v-3.126a.781.781 0 00-.78-.78h-1.08l-.314-.628 1.165-1.164a.78.78 0 000-1.105L23.99 8.042a.78.78 0 00-1.105 0l-1.164 1.164-.627-.313v-1.08a.781.781 0 00-.782-.78h-3.125a.781.781 0 00-.78.78v1.08l-.628.313-1.164-1.164a.78.78 0 00-1.105 0l-2.344 2.344a.78.78 0 000 1.105l1.165 1.164-.314.627h-1.08a.781.781 0 00-.78.781v3.126c0 .43.348.78.78.78zm.78-3.125h.782a.782.782 0 00.7-.432l.78-1.563a.78.78 0 00-.146-.901l-1.01-1.01 1.239-1.24 1.01 1.01a.783.783 0 00.901.147l1.563-.78a.782.782 0 00.432-.7v-.781h1.562v.781c0 .296.167.566.432.7l1.563.78c.3.149.663.092.901-.146l1.01-1.01 1.24 1.239-1.01 1.01a.78.78 0 00-.148.901l.782 1.563a.782.782 0 00.699.432h.781v1.562H25a.782.782 0 00-.7.432l-.78 1.563a.78.78 0 00.146.901l1.01 1.01-1.238 1.24-1.01-1.01a.786.786 0 00-.902-.148l-1.563.782a.782.782 0 00-.432.699v.781H17.97v-.781a.782.782 0 00-.432-.7l-1.563-.78a.78.78 0 00-.901.146l-1.01 1.01-1.24-1.238 1.01-1.01a.78.78 0 00.147-.902l-.78-1.563a.782.782 0 00-.7-.432h-.781v-1.562z" fill="#FB532A"/><path d="M18.75 19.532a3.91 3.91 0 003.906-3.906 3.91 3.91 0 00-3.906-3.906 3.91 3.91 0 00-3.906 3.906 3.91 3.91 0 003.906 3.906zm0-6.25a2.347 2.347 0 012.344 2.344 2.347 2.347 0 01-2.344 2.344 2.347 2.347 0 01-2.344-2.344 2.347 2.347 0 012.344-2.344z" fill="#FB532A"/></svg>