<svg width="50" height="46" fill="none" xmlns="http://www.w3.org/2000/svg"><path d="M13.548 4.252a1.046 1.046 0 000 2.09 1.046 1.046 0 000-2.09zm-4.171 0a1.046 1.046 0 000 2.09 1.046 1.046 0 000-2.09zm-4.171 0a1.046 1.046 0 000 2.09 1.046 1.046 0 000-2.09zm30.221 16.664a4.175 4.175 0 00-4.17 4.17v2.08a4.169 4.169 0 004.17 4.171 4.175 4.175 0 004.17-4.17v-2.08a4.175 4.175 0 00-4.17-4.171zm2.07 6.25a2.082 2.082 0 01-2.08 2.081 2.082 2.082 0 01-2.08-2.08v-2.08c0-1.153.937-2.081 2.08-2.081 1.153 0 2.08.938 2.08 2.08v2.08z" fill="#FB532A"/><path d="M44.804.081H5.206A5.21 5.21 0 000 5.287v35.427a5.21 5.21 0 005.206 5.206h39.588A5.21 5.21 0 0050 40.714V5.297A5.204 5.204 0 0044.804.081zM2.08 5.297a3.135 3.135 0 013.126-3.125h39.588a3.135 3.135 0 013.126 3.125v3.126H2.08V5.297zM44.804 43.84H5.206a3.135 3.135 0 01-3.126-3.126v-30.21h45.84v30.21h.01a3.135 3.135 0 01-3.126 3.126z" fill="#FB532A"/><path d="M16.673 23.006c1.23 0 2.042.586 2.09 1.006.059.566.547 1.006 1.133.938a1.04 1.04 0 00.938-1.133c-.156-1.651-1.944-2.892-4.16-2.892-2.335 0-4.172 1.377-4.172 3.126 0 1.621 1.29 2.666 3.849 3.077l.312.049c1.73.283 2.09.722 2.09 1.035 0 .41-.83 1.045-2.09 1.045-1.23 0-2.041-.586-2.09-1.006-.059-.567-.557-1.006-1.133-.938a1.04 1.04 0 00-.938 1.133c.157 1.651 1.944 2.891 4.161 2.891 2.335 0 4.171-1.377 4.171-3.125 0-1.631-1.29-2.667-3.838-3.087l-.313-.049c-1.827-.302-2.1-.771-2.1-1.025 0-.41.83-1.045 2.09-1.045zm12.503 0a1.046 1.046 0 000-2.09H23.97c-.577 0-1.046.468-1.046 1.045v8.331c0 .586.46 1.045 1.036 1.045h5.206a1.046 1.046 0 000-2.09h-4.161v-2.08h3.126a1.046 1.046 0 000-2.09h-3.126v-2.071h4.17z" fill="#FB532A"/></svg>