<svg width="50" height="50" fill="none" xmlns="http://www.w3.org/2000/svg"><g clip-path="url(#clip0_251_74)" fill="#FB532A"><path d="M42.972.001h-2.15c-.944 0-.944 1.465 0 1.465h2.15c2.22 0 4.027 1.8 4.027 4.012V22.43c0 2.212-1.806 4.011-4.027 4.011h-2.438a.732.732 0 00-.445.151l-4.474 3.422v-2.84a.732.732 0 00-.732-.733h-8.916c-.73 0-1.431-.192-2.05-.559V17.66a4.47 4.47 0 00-1.976-3.706V5.478c0-2.212 1.806-4.012 4.026-4.012h10.265c.945 0 .945-1.465 0-1.465H25.967c-3.028 0-5.491 2.457-5.491 5.477v7.832a4.49 4.49 0 00-1.045-.123H6.021c-2.472 0-4.485 2.006-4.485 4.473v1.582c0 .945 1.465.945 1.465 0V17.66a3.018 3.018 0 013.02-3.008h13.41c1.666 0 3.02 1.35 3.02 3.008v8.515a.732.732 0 000 .194v4.66c0 .092-.005.184-.013.275h-1.51a3.398 3.398 0 00-3.34 2.78.735.735 0 00-.19.106l-3.277 2.53v-1.95a.733.733 0 00-.733-.732H6.022a3.018 3.018 0 01-3.02-3.009v-7.392c0-.945-1.466-.945-1.466 0v7.392c0 2.467 2.013 4.474 4.486 4.474h6.634v2.708c0 .588.713.94 1.18.58l3.696-2.853v8.24a3.395 3.395 0 003.395 3.388h4.496v1.71c0 .587.713.94 1.18.58l2.965-2.29h.876a3.396 3.396 0 003.395-3.387v-1.3c0-.946-1.465-.946-1.465 0v1.3c0 1.06-.866 1.922-1.93 1.922h-1.126a.732.732 0 00-.448.153l-1.982 1.53v-.95a.733.733 0 00-.733-.733h-5.228a1.929 1.929 0 01-1.93-1.922v-9.487c0-1.06.866-1.923 1.93-1.923h9.517c1.064 0 1.93.863 1.93 1.923v3.596c0 .945 1.465.945 1.465 0v-3.596a3.395 3.395 0 00-3.395-3.388h-6.536c.006-.091.009-3.791.009-3.791.646.26 1.338.395 2.05.395h8.183v3.59c0 .586.71.939 1.178.582l5.454-4.172h2.19c3.028 0 5.492-2.457 5.492-5.477V5.478C48.464 2.458 46 0 42.972 0z"/><path d="M36.3 5.413c-.93-.237-1.878.498-1.878 1.459a4.3 4.3 0 01-1.077 2.849l-2.018 2.283a.731.731 0 00-.614-.333h-3.94a.732.732 0 00-.732.733v8.865c0 .404.328.732.732.732h3.94c.296 0 .55-.176.666-.428.798.487 1.722.75 2.663.75h6.963c1.064 0 1.942-.923 1.892-1.984-.022-.47.002-6.78.002-6.92 0-1.045-.85-1.895-1.892-1.895l-3.62-.01.149-.356a5.72 5.72 0 00-.301-5.033 1.493 1.493 0 00-.935-.712c-.398-.102.399.102 0 0-.93-.237.399.102 0 0zm-6.32 15.123h-2.474v-7.4h2.475v7.4zm11.025-7.547a.43.43 0 01.429.43l-.004 1.03c-.01 2.831-.018 5.513.003 5.959a.427.427 0 01-.428.45h-6.963c-.83 0-1.643-.287-2.288-.81l-.308-.249v-5.717l2.997-3.392a5.768 5.768 0 001.444-3.818c0-.042.057-.053.076-.02a4.246 4.246 0 01.223 3.736l-.578 1.37a.733.733 0 00.673 1.017l4.724.014zM7.809 25.444a.733.733 0 100 1.465h2.16l-.404 2.44a.733.733 0 001.445.238l.443-2.678h1.767l-.403 2.44a.733.733 0 001.445.239l.443-2.679h2.94a.733.733 0 100-1.465h-2.698l.296-1.787h2.401a.733.733 0 100-1.465h-2.16l.404-2.44a.733.733 0 00-1.445-.239L14 22.192h-1.767l.403-2.44a.733.733 0 00-1.445-.239l-.443 2.679h-2.94a.732.732 0 100 1.465h2.698l-.296 1.787h-2.4zm4.182-1.787h1.767l-.295 1.787h-1.768l.296-1.787zm13.686 12.892a2.463 2.463 0 00-2.168-.487c-1.012.245-2.033 1.191-2.033 2.75 0 .97.355 1.812 1.083 2.574.595.623 1.453 1.215 2.783 1.92a.733.733 0 00.687 0c2.32-1.23 3.865-2.465 3.865-4.494 0-1.567-1.057-2.503-2.104-2.736-.787-.175-1.55.01-2.113.473zm2.752 2.263c0 1.094-.726 1.904-2.744 3.014-2.017-1.11-2.744-1.92-2.744-3.014 0-.815.472-1.22.913-1.327a1.1 1.1 0 01.258-.03c.332 0 .697.153.922.59a.733.733 0 001.315-.027c.237-.508.736-.598 1.123-.511.463.102.957.499.957 1.305z"/></g><defs><clipPath id="clip0_251_74"><path fill="#fff" transform="translate(0 .001)" d="M0 0h50v50H0z"/></clipPath></defs></svg>