<svg width="50" height="50" fill="none" xmlns="http://www.w3.org/2000/svg"><path d="M44.324 47.018H5.676A5.683 5.683 0 010 41.342V8.576a5.683 5.683 0 015.676-5.677h38.648A5.683 5.683 0 0150 8.576v32.766a5.683 5.683 0 01-5.676 5.676zM5.676 4.59a3.99 3.99 0 00-3.985 3.986v32.766a3.99 3.99 0 003.985 3.986h38.648a3.99 3.99 0 003.985-3.986V8.576a3.99 3.99 0 00-3.985-3.986H5.676z" fill="#FB532A"/><path d="M42.37 34.111H29.085a.845.845 0 110-1.69H42.37a.846.846 0 010 1.69zm0 6.113H29.085a.845.845 0 110-1.691H42.37a.846.846 0 010 1.69zm0-18.337H29.085a.845.845 0 110-1.691H42.37a.846.846 0 010 1.69zm0 6.113H29.085a.845.845 0 110-1.692H42.37a.846.846 0 010 1.691zm6.785-13.78H.845a.845.845 0 110-1.691h48.31a.845.845 0 110 1.69zm-36.967-3.013a2.634 2.634 0 01-2.631-2.631c0-1.45 1.18-2.63 2.63-2.63 1.451 0 2.631 1.18 2.631 2.63s-1.18 2.63-2.63 2.63zm0-3.57a.941.941 0 00-.94.939.941.941 0 001.88 0 .941.941 0 00-.94-.94zm-6.092 3.57c-1.45 0-2.63-1.18-2.63-2.631 0-1.45 1.18-2.63 2.63-2.63s2.631 1.18 2.631 2.63-1.18 2.63-2.63 2.63zm0-3.57a.941.941 0 00-.94.939.941.941 0 001.88 0 .941.941 0 00-.94-.94zm12.183 3.57a2.633 2.633 0 01-2.63-2.631c0-1.45 1.179-2.63 2.63-2.63 1.45 0 2.63 1.18 2.63 2.63s-1.18 2.63-2.63 2.63zm0-3.57a.94.94 0 000 1.879.941.941 0 000-1.88zm4.426 32.587H7.367a.845.845 0 01-.845-.846V21.041c0-.466.378-.845.845-.845h15.338c.467 0 .846.379.846.845v18.337a.845.845 0 01-.846.846zM8.213 38.533H21.86V21.887H8.213v16.646z" fill="#FB532A"/></svg>