<svg width="70" height="70" fill="none" xmlns="http://www.w3.org/2000/svg"><path fill-rule="evenodd" clip-rule="evenodd" d="M21.772 3.11c3.422-.158 4.512-.193 13.227-.193s9.806.038 13.224.192c3.419.155 5.752.7 7.794 1.49a15.784 15.784 0 015.681 3.705 15.672 15.672 0 013.699 5.678c.793 2.042 1.336 4.376 1.493 7.788.158 3.427.193 4.518.193 13.23 0 8.715-.038 9.806-.193 13.227-.154 3.413-.7 5.746-1.493 7.788a15.739 15.739 0 01-3.699 5.684 15.732 15.732 0 01-5.681 3.698c-2.042.794-4.375 1.336-7.788 1.494-3.424.157-4.515.192-13.23.192s-9.806-.038-13.227-.192c-3.412-.155-5.746-.7-7.787-1.494A15.742 15.742 0 018.3 61.7a15.728 15.728 0 01-3.7-5.682c-.79-2.042-1.333-4.376-1.49-7.788-.158-3.427-.193-4.518-.193-13.23 0-8.715.038-9.806.193-13.224.154-3.418.7-5.752 1.49-7.793A15.738 15.738 0 018.303 8.3a15.727 15.727 0 015.679-3.7c2.041-.79 4.375-1.333 7.787-1.49h.003zm26.192 5.774c-3.383-.154-4.398-.187-12.965-.187-8.566 0-9.58.033-12.964.187-3.13.143-4.827.665-5.959 1.106-1.496.583-2.567 1.274-3.69 2.397a9.951 9.951 0 00-2.397 3.69c-.44 1.131-.963 2.829-1.105 5.958-.155 3.384-.187 4.399-.187 12.965 0 8.566.032 9.581.187 12.965.142 3.13.665 4.827 1.105 5.958a9.959 9.959 0 002.397 3.69 9.959 9.959 0 003.69 2.397c1.132.44 2.83.963 5.959 1.106 3.383.154 4.395.187 12.964.187 8.57 0 9.582-.033 12.965-.187 3.13-.143 4.827-.665 5.959-1.106 1.496-.583 2.566-1.274 3.69-2.397a9.96 9.96 0 002.397-3.69c.44-1.131.962-2.829 1.105-5.958.155-3.384.187-4.399.187-12.965 0-8.566-.032-9.581-.187-12.965-.143-3.13-.665-4.827-1.105-5.958-.584-1.497-1.275-2.567-2.398-3.69a9.955 9.955 0 00-3.69-2.397c-1.131-.44-2.828-.963-5.958-1.106zM30.9 44.89a10.701 10.701 0 0011.667-17.459A10.704 10.704 0 1030.9 44.891zm-7.563-21.55a16.489 16.489 0 0123.322 0 16.491 16.491 0 11-23.321 0zm31.81-2.375a3.9 3.9 0 10-5.353-5.674 3.9 3.9 0 005.353 5.674z" fill="#fff"/></svg>