<svg width="70" height="70" fill="none" xmlns="http://www.w3.org/2000/svg"><path d="M68.958 14.4a27.211 27.211 0 01-7.802 2.138 13.62 13.62 0 005.973-7.52 27.125 27.125 0 01-8.627 3.296A13.592 13.592 0 0035.349 24.71 38.586 38.586 0 017.345 10.512a13.58 13.58 0 00-1.838 6.83 13.592 13.592 0 006.043 11.311 13.553 13.553 0 01-6.154-1.7v.175a13.592 13.592 0 0010.9 13.323c-2.002.542-4.1.622-6.137.234a13.594 13.594 0 0012.694 9.432 27.265 27.265 0 01-16.876 5.819c-1.084 0-2.167-.063-3.244-.19a38.427 38.427 0 0020.825 6.105c24.996 0 38.66-20.703 38.66-38.658 0-.583-.014-1.172-.04-1.756a27.622 27.622 0 006.775-7.029l.006-.008z" fill="#fff"/></svg>