<svg width="70" height="70" fill="none" xmlns="http://www.w3.org/2000/svg"><g clip-path="url(#clip0_448_6)"><path fill-rule="evenodd" clip-rule="evenodd" d="M68.396 17.348c.484-1.592 0-2.765-2.319-2.765h-7.656c-1.949 0-2.847 1.012-3.334 2.13 0 0-3.894 9.321-9.41 15.376-1.784 1.756-2.595 2.313-3.57 2.313-.486 0-1.218-.557-1.218-2.152V17.348c0-1.913-.537-2.765-2.159-2.765H26.69c-1.216 0-1.948.887-1.948 1.73 0 1.811 2.76 2.231 3.042 7.33V34.72c0 2.43-.446 2.87-1.42 2.87-2.596 0-8.91-9.365-12.659-20.081-.726-2.086-1.46-2.926-3.418-2.926H2.625C.437 14.583 0 15.595 0 16.713c0 1.989 2.596 11.87 12.09 24.94 6.329 8.925 15.24 13.764 23.356 13.764 4.868 0 5.469-1.074 5.469-2.926v-6.746c0-2.15.46-2.578 2.004-2.578 1.137 0 3.083.56 7.627 4.862 5.191 5.101 6.046 7.388 8.969 7.388h7.656c2.187 0 3.284-1.074 2.654-3.197-.694-2.112-3.173-5.177-6.46-8.814-1.785-2.071-4.463-4.302-5.277-5.42-1.134-1.431-.81-2.07 0-3.345 0 0 9.334-12.909 10.305-17.293h.003z" fill="#fff"/></g><defs><clipPath id="clip0_448_6"><path fill="#fff" d="M0 0h70v70H0z"/></clipPath></defs></svg>